<svg xmlns="http://www.w3.org/2000/svg" width="105.141" height="41.228" viewBox="0 0 105.141 41.228">
    <defs>
        <linearGradient id="linear-gradient" x2="1" y1=".5" y2=".5" gradientUnits="objectBoundingBox">
            <stop offset="0" stop-color="#4668d5"/>
            <stop offset="1" stop-color="#964bac"/>
        </linearGradient>
        <style>
            .cls-1{fill:#0c0e17}
        </style>
    </defs>
    <g id="Group_29" transform="translate(-268.607 -58.316)">
        <g id="Group_28">
            <g id="Group_27">
                <g id="Group_26">
                    <g id="Group_25">
                        <path id="Path_46" d="M289.358 69.86a9.892 9.892 0 0 0-3.982-3.845 12.634 12.634 0 0 0-11.333 0 9.869 9.869 0 0 0-3.983 3.845 12.426 12.426 0 0 0-.021 11.622 9.838 9.838 0 0 0 3.946 3.828 11.8 11.8 0 0 0 5.645 1.339 12.059 12.059 0 0 0 5.69-1.339 9.988 9.988 0 0 0 4.018-3.845 12.238 12.238 0 0 0 .02-11.6zm-6.526 9.746a4.278 4.278 0 0 1-3.2 1.377 4.03 4.03 0 0 1-3.119-1.377 5.693 5.693 0 0 1-1.242-3.945 5.608 5.608 0 0 1 1.263-3.962 4.344 4.344 0 0 1 6.334.021 5.568 5.568 0 0 1 1.284 3.941 5.493 5.493 0 0 1-1.32 3.945z" class="cls-1"/>
                    </g>
                </g>
                <path id="Rectangle_38" d="M0 0H6.57V28.333H0z" class="cls-1" transform="translate(268.607 58.316)"/>
            </g>
        </g>
        <path id="Path_47" d="M314.786 75.661a10.77 10.77 0 0 0-1.583-5.635 11.235 11.235 0 0 0-9.47-5.353h-.152a10.979 10.979 0 0 0-1.315.076c-.148.017-.3.034-.444.058a11.252 11.252 0 0 0-5.777 2.719 10.856 10.856 0 0 0 .362 16.579 11.274 11.274 0 0 0 5.466 2.417c.111.017.224.031.341.045s.238.024.355.034c.241.021.482.034.73.041.124 0 .248.007.372.007h.062a11.254 11.254 0 0 0 8.778-4.351 10.787 10.787 0 0 0 1.656-3.023h-.29v-.013h-6.968l-.007.013a3.448 3.448 0 0 1-3.4 2.056 3.925 3.925 0 0 1-2.778-1.054 4.437 4.437 0 0 1-1.28-3.046h15.225a10.7 10.7 0 0 0 .117-1.57zm-15.3-2.066a4.255 4.255 0 0 1 1.4-2.719 4.146 4.146 0 0 1 2.775-.957 4.216 4.216 0 0 1 2.871 1 3.366 3.366 0 0 1 1.149 2.681z" class="cls-1"/>
        <path id="Path_48" fill="url(#linear-gradient)" d="M327.512 64.673h-.357v.006a11.776 11.776 0 0 0-5.309 1.333 9.869 9.869 0 0 0-3.983 3.845 12.426 12.426 0 0 0-.021 11.622 9.835 9.835 0 0 0 3.945 3.828 11.806 11.806 0 0 0 5.646 1.339 12.062 12.062 0 0 0 5.69-1.339 9.986 9.986 0 0 0 4.017-3.845 11.271 11.271 0 0 0 1.474-5.8 11.39 11.39 0 0 0-1.453-5.8c-.139-.239-.288-.469-.443-.693a5.646 5.646 0 0 0 2.224-4.491h-11.316c-.038-.002-.075-.005-.114-.005zm3.122 14.933a4.275 4.275 0 0 1-3.2 1.377 4.03 4.03 0 0 1-3.119-1.377 5.688 5.688 0 0 1-1.243-3.945 5.609 5.609 0 0 1 1.264-3.962 4.344 4.344 0 0 1 6.334.021 5.568 5.568 0 0 1 1.284 3.941 5.489 5.489 0 0 1-1.32 3.945zm1.644 8.949h6.664a11.247 11.247 0 0 1-1.478 5.8 9.965 9.965 0 0 1-4.02 3.843 11.989 11.989 0 0 1-5.681 1.343 11.758 11.758 0 0 1-5.647-1.343 9.79 9.79 0 0 1-3.945-3.83 11.42 11.42 0 0 1-1.437-5.816h6.666a5.712 5.712 0 0 0 1.24 3.945 4.046 4.046 0 0 0 3.125 1.376 4.27 4.27 0 0 0 3.193-1.376 5.487 5.487 0 0 0 1.32-3.942zm34.806 0h6.664a11.247 11.247 0 0 1-1.478 5.8 9.965 9.965 0 0 1-4.02 3.843 11.983 11.983 0 0 1-5.68 1.343 11.755 11.755 0 0 1-5.647-1.343 9.787 9.787 0 0 1-3.946-3.83 11.43 11.43 0 0 1-1.437-5.816h6.66a5.717 5.717 0 0 0 1.24 3.945 4.048 4.048 0 0 0 3.126 1.376 4.269 4.269 0 0 0 3.192-1.376 5.482 5.482 0 0 0 1.326-3.942zm-10.163-3.245a11.8 11.8 0 0 0 5.645 1.339 12.038 12.038 0 0 0 5.687-1.339 9.983 9.983 0 0 0 4.021-3.845 12.227 12.227 0 0 0 .017-11.6c-.174-.3-.363-.58-.56-.854a5.647 5.647 0 0 0 2.017-4.33h-11.787v.015a11.674 11.674 0 0 0-4.982 1.324A9.869 9.869 0 0 0 353 69.86a12.411 12.411 0 0 0-.017 11.622 9.8 9.8 0 0 0 3.938 3.828zm2.543-13.61a4.353 4.353 0 0 1 6.341.021 5.6 5.6 0 0 1 1.281 3.941 5.477 5.477 0 0 1-1.322 3.945 4.267 4.267 0 0 1-3.2 1.377 4.025 4.025 0 0 1-3.119-1.377 5.693 5.693 0 0 1-1.243-3.945 5.626 5.626 0 0 1 1.262-3.962zm-13.394.548h2.2v14.4h-6.392v-14.4h2.244a.4.4 0 0 1 .207.582c-.341.548-.42 1.226.213 1.6a1.109 1.109 0 0 0 1.5-.417 1.152 1.152 0 0 0-.179-1.194.4.4 0 0 1 .207-.572zm-3.484-2.642h-.733l.069-5.964 5.731-.034h.593v5.961l-2.2.017a.392.392 0 0 0-.2.561 1.128 1.128 0 0 1 .182 1.177 1.091 1.091 0 0 1-1.477.42c-.626-.365-.554-1.032-.223-1.576a.387.387 0 0 0 .038-.327.38.38 0 0 0-.241-.245z"/>
    </g>
</svg>
