<svg xmlns="http://www.w3.org/2000/svg" width="621.112" height="862.852" viewBox="0 0 621.112 862.852">
    <defs>
        <style>
            .cls-2{fill:#4668d5}.cls-5,.cls-8{fill:none;stroke-width:1.5px}.cls-5{stroke-miterlimit:10}.cls-5,.cls-8{stroke:#0c0e17}.cls-6{fill:#eef1ff}.cls-7{fill:#e1e7ff}.cls-8{stroke-linecap:round;stroke-linejoin:round}
        </style>
    </defs>
    <g id="Group_99" transform="translate(-1063.235 -453.806)">
        <rect id="Rectangle_11" width="472" height="775" fill="#fff" rx="30.903" transform="translate(1179 507.5)"/>
        <path id="Path_19" d="M3714.1 2304.259q15.794 8.992 31.856 8.771a55.054 55.054 0 0 0 29.411-8.756 66.3 66.3 0 0 0 21.961-23.564 64.877 64.877 0 0 0 9-30.74 54.062 54.062 0 0 0-7.577-29.382q-7.976-13.665-23.953-22.782l-18.213 31.936q12.285 7 15.522 16.728a22.373 22.373 0 0 1-1.943 18.751 23.539 23.539 0 0 1-15.325 11.532q-10.24 2.568-22.525-4.444l-18.213 31.95z" class="cls-2" transform="translate(-2122 -1744)"/>
        <path id="Path_26" d="M3710.785 3056.576l.157 4.082 41.1-1.81-.55-15.18a2.706 2.706 0 0 1 3.808-1.57c2.677 1.4 5.3 2.622 8.171.905a7.554 7.554 0 0 0 2.447-10.323c-2.707-4.211-7.291-3.509-10.94-1.053a2.667 2.667 0 0 1-2.243.351 2.608 2.608 0 0 1-1.759-1.589l-.4-10.581-.2-5.06-41.1 2.29 1.507 39.538z" class="cls-2" transform="translate(-2122 -1744)"/>
        <path id="Path_27" fill="none" stroke="#4668d5" stroke-miterlimit="10" stroke-width="1.5px" d="M3307.194 2854.647a65.2 65.2 0 0 0-8.757-30.8 54.288 54.288 0 0 0-22.063-20.8q-14.07-7.308-32.44-6.481-18.131.8-31.623 9.419a54.4 54.4 0 0 0-20.226 22.9 69.683 69.683 0 0 0 2.76 62.47 54.507 54.507 0 0 0 22.167 21.01q14.188 7.4 32.329 6.6 18.163-.8 31.638-9.538a55.106 55.106 0 0 0 20.219-23.077 66.593 66.593 0 0 0 5.996-31.703zm-38.047 19.371q-7.281 7.6-21.427 8.224-14.118.621-22.041-6.112a23.984 23.984 0 0 1-1.656-34.919q7.178-7.308 21.534-7.929 14.148-.62 22.051 5.892a22.229 22.229 0 0 1 8.35 16.861 23.6 23.6 0 0 1-6.811 17.983z" transform="translate(-2122 -1744)"/>
        <g id="Group_96" transform="translate(-2122 -1744)">
            <g id="Group_16">
                <path id="Path_25" fill="#964bac" d="M3680.588 2563.4l-75.724-67.069a99.291 99.291 0 0 1-21.782 23.616l76.209 67.5a16.061 16.061 0 0 0 21.3-24.046z"/>
                <circle id="Ellipse_6" cx="98.807" cy="98.807" r="98.807" class="cls-5" transform="translate(3382.609 2442.001) rotate(-45)"/>
                <circle id="Ellipse_7" cx="75.065" cy="75.065" r="75.065" class="cls-5" transform="translate(3416.185 2442.001) rotate(-45)"/>
            </g>
            <g id="Group_18">
                <path id="Rectangle_13" d="M0 0H224.234V57.251H0z" class="cls-6" transform="translate(3489.268 2667.313)"/>
                <path id="Rectangle_14" d="M0 0H224.234V57.251H0z" class="cls-6" transform="translate(3489.268 2784.871)"/>
                <path id="Rectangle_15" d="M0 0H224.234V57.251H0z" class="cls-6" transform="translate(3489.268 2889.639)"/>
                <circle id="Ellipse_8" cx="42.461" cy="42.461" r="42.461" class="cls-7" transform="translate(3370.948 2653)"/>
                <path id="Path_28" d="M3397.666 2670.175l15.267 29.58 23.855-13.359" class="cls-8"/>
                <g id="Group_17">
                    <rect id="Rectangle_16" width="86.361" height="60.114" class="cls-7" rx="5.484" transform="translate(3371.256 2786.394)"/>
                    <path id="Rectangle_17" d="M0 0H6.679V14.917H0z" class="cls-8" transform="translate(3391.94 2781.201)"/>
                    <path id="Rectangle_18" d="M0 0H6.679V14.917H0z" class="cls-8" transform="translate(3431.062 2781.201)"/>
                    <path id="Line_3" d="M0 0L75.222 0" class="cls-8" transform="translate(3376.826 2802.615)"/>
                </g>
                <path id="Path_29" d="M3455.4 2901.122v42.978a2.894 2.894 0 0 1-2.894 2.9h-49.365a3.531 3.531 0 0 1-2.777-1.35l-18.449-23.488 18.449-22.635a3.533 3.533 0 0 1 2.738-1.3h49.4a2.894 2.894 0 0 1 2.898 2.895z" class="cls-7"/>
                <path id="Path_30" d="M3397.666 2919.219c-18.13 26.717-62.977 12.4-18.13-1.909" class="cls-8"/>
            </g>
        </g>
    </g>
</svg>
