<svg xmlns="http://www.w3.org/2000/svg" width="580.262" height="857.446" viewBox="0 0 580.262 857.446">
    <defs>
        <style>
            .cls-1{fill:#4668d5}.cls-4{fill:#eef1ff}.cls-5{fill:#e1e7ff}
        </style>
    </defs>
    <g id="Group_100" transform="translate(-1143.252 -507.5)">
        <path id="Path_1" d="M3750.523 4336.858l.157 4.081 41.1-1.81-.55-15.18a2.715 2.715 0 0 1 1.684-1.718 2.685 2.685 0 0 1 2.123.148c2.678 1.4 5.3 2.622 8.172.905a7.554 7.554 0 0 0 2.447-10.323c-2.707-4.211-7.291-3.509-10.94-1.053a2.668 2.668 0 0 1-2.244.351 2.607 2.607 0 0 1-1.758-1.588l-.4-10.582-.2-5.06-41.1 2.29 1.507 39.539z" class="cls-1" transform="translate(-2083.243 -3431.5)"/>
        <rect id="Rectangle_7" width="472" height="775" fill="#fff" rx="30.903" transform="translate(1218 507.5)"/>
        <path id="Path_2" d="M3240.1 4065.759q15.792 8.992 31.856 8.771a55.054 55.054 0 0 0 29.411-8.756 66.3 66.3 0 0 0 21.961-23.564 64.877 64.877 0 0 0 9-30.74 54.062 54.062 0 0 0-7.577-29.382q-7.976-13.665-23.953-22.782l-18.214 31.936q12.285 7 15.522 16.728a22.369 22.369 0 0 1-1.942 18.751 23.539 23.539 0 0 1-15.325 11.532q-10.242 2.568-22.525-4.444l-18.213 31.95z" class="cls-1" transform="translate(-2096.846 -3431.5)"/>
        <path id="Path_6" fill="none" stroke="#4668d5" stroke-miterlimit="10" stroke-width="1.5px" d="M3673.656 4731.3a65.215 65.215 0 0 0-8.757-30.8 54.289 54.289 0 0 0-22.063-20.8q-14.07-7.308-32.44-6.481-18.132.8-31.623 9.419a54.4 54.4 0 0 0-20.226 22.9 69.686 69.686 0 0 0 2.759 62.47 54.5 54.5 0 0 0 22.168 21.01q14.187 7.4 32.329 6.6 18.164-.8 31.638-9.538a55.1 55.1 0 0 0 20.218-23.08 66.6 66.6 0 0 0 5.997-31.7zm-38.048 19.372q-7.28 7.6-21.426 8.224-14.119.62-22.041-6.113a23.985 23.985 0 0 1-1.657-34.919q7.179-7.308 21.535-7.929 14.146-.62 22.051 5.892a22.225 22.225 0 0 1 8.349 16.861 23.593 23.593 0 0 1-6.811 17.986z" transform="translate(-2083.243 -3431.5)"/>
        <g id="Group_94">
            <g id="Group_2" transform="translate(1276.731 664.27)">
                <circle id="Ellipse_1" cx="61.601" cy="61.601" r="61.601" class="cls-4" transform="translate(0 119.906) rotate(-76.717)"/>
                <g id="Group_1" transform="translate(47.265 35.375)">
                    <path id="Path_7" d="M3443.712 4199.648h-22.426a3.959 3.959 0 0 1-4.3-4.406 26.707 26.707 0 0 1 52.967-4.26 35.6 35.6 0 0 1 .451 4.15 3.947 3.947 0 0 1-4.265 4.515q-11.214.005-22.427.001z" class="cls-5" transform="translate(-3416.983 -4131.145)"/>
                    <path id="Path_8" d="M3443.7 4131.145a15.273 15.273 0 1 1-15.319 15.285 15.235 15.235 0 0 1 15.319-15.285z" class="cls-5" transform="translate(-3416.983 -4131.145)"/>
                </g>
            </g>
            <g id="Group_4" transform="translate(1440.864 725.195)">
                <circle id="Ellipse_2" cx="50.626" cy="50.626" r="50.626" class="cls-4" transform="translate(0 71.596) rotate(-45)"/>
                <g id="Group_3" transform="translate(49.536 39.765)">
                    <path id="Path_9" d="M3595.611 4252.758h-18.431a3.253 3.253 0 0 1-3.535-3.62 21.95 21.95 0 0 1 43.531-3.5 29.5 29.5 0 0 1 .371 3.41 3.244 3.244 0 0 1-3.506 3.711q-9.215.002-18.43-.001z" class="cls-5" transform="translate(-3573.643 -4196.46)"/>
                    <path id="Path_10" d="M3595.6 4196.46a12.552 12.552 0 1 1-12.59 12.562 12.521 12.521 0 0 1 12.59-12.562z" class="cls-5" transform="translate(-3573.643 -4196.46)"/>
                </g>
            </g>
            <g id="Group_6" transform="translate(1247.322 788.689)">
                <circle id="Ellipse_3" cx="76.824" cy="76.824" r="76.824" class="cls-4" transform="translate(0 108.646) rotate(-45)"/>
                <g id="Group_5" transform="translate(75.17 60.343)">
                    <path id="Path_11" d="M3448.287 4365.964h-27.968c-3.419 0-5.466-2.1-5.364-5.494a33.308 33.308 0 0 1 66.057-5.313 44.465 44.465 0 0 1 .563 5.176c.2 3.46-1.875 5.63-5.319 5.631q-13.984.004-27.969 0z" class="cls-5" transform="translate(-3414.951 -4280.532)"/>
                    <path id="Path_12" d="M3448.267 4280.532a19.048 19.048 0 1 1-19.1 19.063 19 19 0 0 1 19.1-19.063z" class="cls-5" transform="translate(-3414.951 -4280.532)"/>
                </g>
            </g>
            <g id="Group_10" transform="translate(1291.487 791.053)">
                <circle id="Ellipse_5" cx="147.099" cy="147.099" r="147.099" class="cls-5" transform="translate(0 208.03) rotate(-45)"/>
                <g id="Group_9" transform="translate(143.933 115.542)">
                    <path id="Path_15" d="M3582.493 4501.675h-53.553c-6.547 0-10.465-4.03-10.27-10.52a63.957 63.957 0 0 1 46.992-60.155c35.6-10.051 73.052 13.514 79.49 49.982a85.3 85.3 0 0 1 1.078 9.91c.385 6.625-3.589 10.779-10.185 10.782q-26.776.01-53.552.001z" class="cls-1" transform="translate(-3518.663 -4338.095)"/>
                    <path id="Path_16" d="M3582.454 4338.1c20.189.015 36.778 16.351 36.547 36.471a36.468 36.468 0 0 1-36.849 36.472c-19.772-.016-36.209-16.556-36.278-36.443a36.594 36.594 0 0 1 36.58-36.5z" class="cls-1" transform="translate(-3518.663 -4338.095)"/>
                </g>
            </g>
            <g id="Group_12" transform="translate(1323.054 1044.578)">
                <path id="Path_17" d="M3486.329 4476.127a16.86 16.86 0 0 1 8.155 1.839c3.125 1.557 6.2 3.209 9.2 4.981 3.487 2.058 7.322 2.789 11.231 3.347 3.276.468 6.578.72 9.833 1.386a14.733 14.733 0 0 1 10 7.235c2.751 4.528 4.831 9.4 7.2 14.118a6.3 6.3 0 0 0 1.173 1.682c3.51 3.524 7.2 6.871 10.559 10.543.676.739 1.333 1.5 1.994 2.247 2.737 3.114 3.288 6.823 2.889 10.771-.386 3.817-1.329 7.541-1.96 11.318a38.455 38.455 0 0 0 .727 14.284 61.049 61.049 0 0 1 1.279 8.593 14.91 14.91 0 0 1-3.9 11.13 52.533 52.533 0 0 1-5.7 5.572 37.321 37.321 0 0 0-10.426 14.372c-.8 1.909-1.782 3.738-2.711 5.591a16.082 16.082 0 0 1-13.248 9.214c-3.149.383-6.284.893-9.432 1.294-4.66.595-8.771 2.577-12.771 4.9a43.666 43.666 0 0 1-8.157 4.036 16.187 16.187 0 0 1-12.018-.487 72.186 72.186 0 0 1-7.7-4.039 36.52 36.52 0 0 0-15.037-4.9c-2.74-.294-5.46-.8-8.182-1.256-5.067-.848-8.487-3.938-10.952-8.232a124.854 124.854 0 0 1-5.579-11.224 19.1 19.1 0 0 0-4.576-6.043c-3.381-3.211-6.69-6.493-9.819-9.96s-3.6-7.563-3.189-11.915c.315-3.373 1.2-6.653 1.8-9.979a37.374 37.374 0 0 0-.345-13.677 66.856 66.856 0 0 1-1.586-10.112 13.975 13.975 0 0 1 4.307-10.821c2.645-2.63 5.144-5.41 7.846-7.979a33.379 33.379 0 0 0 7.555-11.274 67.6 67.6 0 0 1 3.241-6.6 16.976 16.976 0 0 1 13.506-8.964c3.118-.362 6.226-.81 9.332-1.261a27.53 27.53 0 0 0 8.529-2.787c3.572-1.813 7.147-3.623 10.741-5.394a11.244 11.244 0 0 1 6.191-1.549z" transform="translate(-3415.069 -4476.078)"/>
                <g id="Group_11" transform="translate(39.431 57.892)">
                    <path id="Path_18" fill="#964bac" d="M3478.54 4579.793a4.108 4.108 0 0 1-2.787-1.091l-19.935-18.431a4.1 4.1 0 1 1 5.574-6.027l16.81 15.542 29.572-34.387a4.105 4.105 0 0 1 6.225 5.353l-32.347 37.613a4.1 4.1 0 0 1-2.878 1.421c-.074.005-.157.007-.234.007z" transform="translate(-3454.5 -4533.97)"/>
                </g>
            </g>
        </g>
        <g id="Group_8" transform="translate(1414.178 618.723)">
            <circle id="Ellipse_4" cx="39.297" cy="39.297" r="39.297" class="cls-4" transform="translate(0 55.575) rotate(-45)"/>
            <g id="Group_7" transform="translate(38.451 30.866)">
                <path id="Path_13" d="M3560.228 4124.789h-14.306a2.527 2.527 0 0 1-2.744-2.811 17.038 17.038 0 0 1 33.79-2.717 22.915 22.915 0 0 1 .288 2.647 2.518 2.518 0 0 1-2.721 2.88q-7.153.004-14.307.001z" class="cls-5" transform="translate(-3543.176 -4081.089)"/>
                <path id="Path_14" d="M3560.218 4081.089a9.744 9.744 0 1 1-.081 19.487 9.744 9.744 0 0 1 .081-19.487z" class="cls-5" transform="translate(-3543.176 -4081.089)"/>
            </g>
        </g>
    </g>
</svg>
