<svg xmlns="http://www.w3.org/2000/svg" width="187.5" height="187.5">
    <defs>
        <style>
            .cls-3{fill:none;stroke:#0c0e17;stroke-miterlimit:10;stroke-width:1.5px}
        </style>
    </defs>
    <g id="Group_154" data-name="Group 154" transform="translate(-2723.411 -1339.876)">
        <circle id="Ellipse_43" data-name="Ellipse 43" cx="93.75" cy="93.75" r="93.75" transform="translate(2723.411 1339.876)" style="fill:#e1e7ff"/>
        <g id="Group_153" data-name="Group 153">
            <g id="Group_151" data-name="Group 151">
                <path id="Path_130" data-name="Path 130" d="m2861.27 1467.171-21.874-19.708a37.041 37.041 0 0 1-8.122 8.806l22.056 19.867a5.988 5.988 0 1 0 7.94-8.965z" style="fill:#4668d5"/>
                <circle id="Ellipse_44" data-name="Ellipse 44" class="cls-3" cx="36.841" cy="36.841" r="36.841" transform="translate(2771.787 1390.364)"/>
                <circle id="Ellipse_45" data-name="Ellipse 45" class="cls-3" cx="27.988" cy="27.988" r="27.988" transform="rotate(-59.966 2630.895 -1682.158)"/>
            </g>
            <g id="Group_152" data-name="Group 152">
                <path id="Path_131" data-name="Path 131" d="M2799.994 1428.092a1.746 1.746 0 0 1 .864-.2q1.811.008 3.623 0a5.214 5.214 0 0 0 4.913-3.513c.118-.351.118-.352-.251-.352h-8.369a1.332 1.332 0 0 1-.32-2.635 2.044 2.044 0 0 1 .477-.036h8.208c.372 0 .372 0 .255-.35a5.17 5.17 0 0 0-4.472-3.469c-1.367-.1-2.735-.023-4.1-.047a1.351 1.351 0 0 1-1.424-1.329 1.368 1.368 0 0 1 1.423-1.343h15.262a1.343 1.343 0 0 1 .449 2.632 1.669 1.669 0 0 1-.477.04h-5.58c.015.156.119.228.187.315a7.729 7.729 0 0 1 1.525 3.249c.049.241.159.308.39.306q1.8-.012 3.591 0a1.352 1.352 0 0 1 1.332 1.2 1.366 1.366 0 0 1-.993 1.43 1.774 1.774 0 0 1-.444.041c-1.154 0-2.308.008-3.462 0-.245 0-.361.068-.413.322a7.725 7.725 0 0 1-1.919 3.713 6.849 6.849 0 0 1-2.449 1.76c-.321.131-.844.345-1.1.42-.358.1-.728.166-1.092.25a7.451 7.451 0 0 1-.751.078c-.308-.012-.618-.005-.923-.005-.049.131.052.167.1.222q4.089 4.339 8.181 8.677.561.594 1.121 1.19a1.342 1.342 0 0 1 0 1.9 1.316 1.316 0 0 1-1.921-.044c-1.316-1.374-2.619-2.76-3.924-4.143q-2.366-2.507-4.727-5.016c-.777-.825-1.555-1.647-2.329-2.475a.66.66 0 0 0-.572-.273c-.709.048-.874-.923-.7-1.423a2 2 0 0 1 .811-1.092z"/>
            </g>
            <path id="Line_8" data-name="Line 8" transform="translate(2793.54 1406.909)" style="stroke:#4668d5;stroke-linecap:round;stroke-linejoin:round;stroke-width:5px;fill:none" d="M31.52 0 0 40.72"/>
        </g>
    </g>
</svg>
