<svg xmlns="http://www.w3.org/2000/svg" width="187.5" height="187.5">
    <g data-name="Group 158" transform="translate(-3029.72 -1340.98)">
        <circle data-name="Ellipse 46" cx="93.75" cy="93.75" r="93.75" transform="translate(3029.72 1340.98)" style="fill:#e1e7ff"/>
        <g data-name="Group 157">
            <path data-name="Path 132" d="m3160.548 1483.439-75-.747.963-96.672 62.075.618 12.8 12.407z" style="fill:#4668d5"/>
            <g data-name="Group 155">
                <path data-name="Path 133" d="m3147.219 1430.158-10.146-.092 10.238-10.053z" style="fill:#0c0e17"/>
            </g>
            <path data-name="Path 134" d="M3143.25 1450.7a23.157 23.157 0 1 1-.5-25.121" style="fill:none;stroke:#0c0e17;stroke-linecap:round;stroke-linejoin:round;stroke-width:1.5px"/>
            <g data-name="Group 156">
                <path data-name="Path 135" d="M3119.258 1432.384h.21q.564 0 .865.82l-.045.392v6.562h.784l.31-.027q.691 0 .929.921a1.044 1.044 0 0 1-.82.993l-.556-.036h-.647v3.053q0 .666-.893.857h-.091c-.6-.11-.9-.416-.9-.921v-2.989h-4.338l-.893.036q-.73-.309-.73-.893v-.137a.913.913 0 0 1 .419-.7q5.46-7.1 5.77-7.583a.887.887 0 0 1 .626-.348zm-3.9 7.774h3.044v-3.964z"/>
                <path data-name="Path 136" d="M3128.3 1432.256a3.537 3.537 0 0 1 2.871 1.495 3.346 3.346 0 0 1 .675 2.023v.174a3.179 3.179 0 0 1-1.076 2.46 3.849 3.849 0 0 1 1.632 3.3 4.226 4.226 0 0 1-1.914 3.509 4.1 4.1 0 0 1-2.261.7h-.173a4.238 4.238 0 0 1-3.473-1.987 4.593 4.593 0 0 1-.629-2.224 3.947 3.947 0 0 1 1.75-3.418 2.776 2.776 0 0 1-.847-1.568 2.2 2.2 0 0 1-.109-.774v-.174a3.466 3.466 0 0 1 1.8-3.026 3.63 3.63 0 0 1 1.754-.49zm-2.452 9.443a2.276 2.276 0 0 0 1.723 2.242 1.948 1.948 0 0 0 .656.082 2.28 2.28 0 0 0 2.188-1.695l.064-.465v-.329a2.224 2.224 0 0 0-1.523-2.014 2.643 2.643 0 0 0-.765-.127 2.237 2.237 0 0 0-2.251 1.7zm.793-5.77q0 1.094 1.331 1.541l.337.036a1.6 1.6 0 0 0 1.586-1.24l.064-.437a1.586 1.586 0 0 0-1.3-1.6l-.4-.037a1.583 1.583 0 0 0-1.559 1.2z"/>
            </g>
        </g>
    </g>
</svg>
