<svg xmlns="http://www.w3.org/2000/svg" width="585.769" height="859.685" viewBox="0 0 585.769 859.685">
    <defs>
        <style>
            .cls-1{fill:#964bac}.cls-4{fill:#0c0e17}.cls-5{fill:none;stroke-width:1.5px;stroke:#0c0e17;stroke-linecap:round;stroke-linejoin:round}
        </style>
    </defs>
    <g id="Group_85" transform="translate(-1162.663 -2769.413)">
        <path id="Path_63" d="M1194.251 2825.66l2.237 3.417 34.293-22.721-8.291-12.728a2.706 2.706 0 0 1 2.455-3.307c3.018-.176 5.892-.482 7.471-3.434a7.554 7.554 0 0 0-3.221-10.108c-4.489-2.214-8.056.748-9.919 4.733a2.663 2.663 0 0 1-1.742 1.456 2.608 2.608 0 0 1-2.326-.455l-5.791-8.866-2.777-4.234-34.047 23.133 21.658 33.114z" class="cls-1"/>
        <rect id="Rectangle_59" width="472" height="775" fill="#fff" rx="30.903" transform="translate(1179 2808.5)"/>
        <g id="Group_31">
            <rect id="Rectangle_61" width="315" height="98.895" fill="#faf3ff" rx="9.436" transform="translate(1265 3001.461)"/>
            <path id="Path_67" d="M1387.691 3083.807l-13.751-7.125-13.665 7.289 2.527-15.28-11.155-10.744 15.313-2.318 6.771-13.929 6.937 13.847 15.34 2.135-11.026 10.876z" class="cls-4"/>
            <path id="Path_68" d="M1444.288 3083.807l-13.751-7.125-13.665 7.289 2.527-15.28-11.155-10.744 15.313-2.318 6.771-13.929 6.937 13.847 15.339 2.135-11.026 10.876z" class="cls-4"/>
            <path id="Path_69" d="M1500.885 3083.807l-13.751-7.125-13.665 7.289 2.527-15.28-11.155-10.744 15.313-2.318 6.771-13.929 6.937 13.847 15.34 2.135-11.026 10.876z" class="cls-4"/>
            <path id="Path_70" d="M1331.094 3083.807l-13.751-7.125-13.665 7.289 2.527-15.28-11.155-10.744 15.313-2.318 6.771-13.929 6.937 13.847 15.34 2.135-11.026 10.876z" class="cls-4"/>
            <g id="Group_30">
                <g id="Group_29">
                    <path id="Path_71" d="M1421.152 3025.8h-41.892c-5.121 0-8.186-3.152-8.034-8.229a50.032 50.032 0 0 1 36.761-47.057c27.848-7.863 57.145 10.571 62.181 39.1a66.583 66.583 0 0 1 .844 7.752c.3 5.183-2.808 8.433-7.968 8.435q-20.944.011-41.892-.001z" class="cls-4"/>
                    <path id="Path_72" d="M1421.122 2897.842c15.794.013 28.77 12.792 28.589 28.531a28.6 28.6 0 1 1-28.589-28.531z" class="cls-4"/>
                </g>
            </g>
        </g>
        <g id="Group_34">
            <g id="Group_32">
                <path id="Path_73" d="M1625.516 3491.706s-76.318-76.161-91.6-117.86-38.331-129.03-56.848-135.875-96.2-7.71-96.2-7.71" class="cls-5"/>
                <path id="Path_74" d="M1350.3 3269.921s-10.357 72.891-.317 82.533 20.85-7.642 25.913-16.934a31.847 31.847 0 0 0 3.443-18.768" class="cls-5"/>
                <path id="Path_75" d="M1400.113 3358.752s-6.338 17.1-14.33 11.356-16.373-24.235-16.373-24.235" class="cls-5"/>
                <path id="Path_76" d="M1419.707 3388.791s1.88 11.495-10.3 13.657c-4.569.812-15.055-32.969-15.055-32.969" class="cls-5"/>
            </g>
            <path id="Path_77" fill="#4668d5" d="M1396.815 3324.319l-59.963-48.9a2.876 2.876 0 0 0-2.627-.533l-74.274 21.674a2.881 2.881 0 0 1-3.493-3.807l27.975-72.137a2.88 2.88 0 0 0-.3-2.664l-43.566-63.942a2.881 2.881 0 0 1 2.541-4.5l77.252 4.315a2.882 2.882 0 0 0 2.439-1.114l47.35-61.193a2.881 2.881 0 0 1 5.063 1.027l19.769 74.8a2.879 2.879 0 0 0 1.812 1.975l72.83 26.123a2.88 2.88 0 0 1 .588 5.132l-65.034 41.918a2.88 2.88 0 0 0-1.319 2.334l-2.339 77.337a2.88 2.88 0 0 1-4.704 2.155z"/>
            <g id="Group_33">
                <path id="Path_78" d="M1413.955 3286.5c-6.495 3.414-9.425-11.624-27.108-42.116s-35.726-44.254-52.612-35.379 5.626 43.7 10.405 52.787 21.214 23.08 49.787 85.492c30.694 67.044 68.807 75.495 68.807 75.495l49.62 111.54" class="cls-5"/>
                <path id="Path_79" d="M1329.991 3229.966s11.654 19.535 15.2 18.365 22.225-14.455 20.8-17.172-11.041-20.585-14.824-23.357" class="cls-5"/>
            </g>
        </g>
        <path id="Path_80" d="M1162.663 3620.324q15.794 8.991 31.856 8.77a55.042 55.042 0 0 0 29.411-8.755 66.31 66.31 0 0 0 21.961-23.565 64.889 64.889 0 0 0 9-30.74 54.061 54.061 0 0 0-7.578-29.382q-7.974-13.665-23.953-22.782l-18.213 31.936q12.285 7 15.522 16.729a22.369 22.369 0 0 1-1.943 18.751 23.535 23.535 0 0 1-15.324 11.531q-10.242 2.57-22.526-4.444l-18.213 31.951z" class="cls-1"/>
        <path id="Path_81" fill="none" stroke="#964bac" stroke-miterlimit="10" stroke-width="1.5px" d="M1747.6 3171.473a65.21 65.21 0 0 0-8.757-30.8 54.278 54.278 0 0 0-22.063-20.8q-14.07-7.31-32.439-6.482-18.132.8-31.623 9.42a54.392 54.392 0 0 0-20.226 22.9 69.688 69.688 0 0 0 2.759 62.47 54.5 54.5 0 0 0 22.168 21.01q14.187 7.4 32.329 6.6 18.162-.8 31.638-9.538a55.1 55.1 0 0 0 20.218-23.077 66.587 66.587 0 0 0 5.996-31.703zm-38.047 19.372q-7.28 7.6-21.427 8.224-14.118.619-22.04-6.113a23.984 23.984 0 0 1-1.657-34.918q7.179-7.31 21.535-7.929 14.147-.621 22.051 5.891a22.232 22.232 0 0 1 8.349 16.861 23.594 23.594 0 0 1-6.807 17.984z"/>
    </g>
</svg>
