<svg xmlns="http://www.w3.org/2000/svg" width="1273.242" height="1474.854" viewBox="0 0 1273.242 1474.854">
    <defs>
        <style>
            .cls-1{fill:none;stroke:#0c0e17;stroke-linecap:round;stroke-linejoin:round;stroke-width:1.5px}.cls-2{fill:#4668d5}
        </style>
    </defs>
    <g id="Group_86" transform="translate(-701.255 -8438.48)">
        <g id="Group_45">
            <g id="Group_43">
                <path id="Path_88" d="M1721.826 8955.846c-11.958-9.055-48.861-30.227-53.861-30.25s-76.184 39.647-76.184 39.647-60.064 13.722-36.939-13.171 45.175-37.791 51.2-42.764 52.148-31.759 71.134-28.671a230.207 230.207 0 0 1 35.958 9.167s-39.865-29.185-44.856-31.208-66.9-21.31-75.893-23.352-55.888-24.259-55.781-47.259 21.069-14.9 27.055-11.875 4.977 5.022 33.949 11.157 81.915 18.38 87.892 23.407 39.907 20.186 39.907 20.186-26.828-37.124-35.791-45.166-59.772-49.278-59.74-56.277.13-28 17.093-19.921 77.767 50.361 84.73 58.393 16.884 25.078 16.884 25.078a123.438 123.438 0 0 0-14.865-29.068c-9.935-14.047-11.741-56.056-1.745-55.009s42.749 54.2 42.749 54.2 11.967 7.056 14.884 25.07 64.424 124.3 101.322 146.471 60.814 40.282 75.809 41.353" class="cls-1"/>
                <path id="Path_89" d="M1542.113 8785.511s13.626 4.286 22.986 3.107c4.9-.618 8.889-4.239 8.023-4.963" class="cls-1"/>
                <path id="Path_90" d="M1633.138 8714.368s12.262 9.621 22.252 11.668 9.081-5.878 9.081-5.878" class="cls-1"/>
                <path id="Path_91" d="M1733.436 8716.4s2.935 14.014 16.925 16.078" class="cls-1"/>
                <path id="Path_92" d="M1671.931 8825.113s-6.12-16.059.057-16.045" class="cls-1"/>
                <path id="Path_93" d="M1709.181 8771.286s8.908-7.9 15.461-5.4" class="cls-1"/>
            </g>
            <path id="Path_94" d="M1522.076 9020.808q-1.281.857-2.568 1.568c-19.344 10.872-37.306-1.09-48.2-18.461a12.908 12.908 0 0 0-10.993-6.1 13.377 13.377 0 0 0-9.272 3.7l-29.649 60.756 66.792 32.6a13.143 13.143 0 0 1-2.515 20.132c-18.143 11.366-30.376 30.448-16.9 50.762a34.71 34.71 0 0 0 11.623 10.807l4.537 2.214c11.153 4.529 24.452 3.666 34.693-3.595 13.242-9.429 13-23.533 12.045-38.241a13.173 13.173 0 0 1 14.224-13.916l65.7 32.062 87.075-178.424-5.894-2.877-178.409-87.067-5.894-2.876-29.116 59.659a13.181 13.181 0 0 0 13.9 14.4c14.709-.96 28.813-1.2 38.238 12.05 7.264 10.235 8.126 23.535 3.6 34.688l-2.215 4.536a34.681 34.681 0 0 1-10.8 11.622z" class="cls-2"/>
            <g id="Group_44">
                <path id="Path_95" d="M1966.735 8975.982c14.995 1.068 1.291 153.007 1.291 153.007s-23.414-18.609-49.372-27.729-49.958-9.231-85.032 6.606-104.9-21.486-117.878-26.547-67.869-28.315-81.855-31.379-44.944-12.209-30.335-35.643c6.446-5.3 17.446-15.3 42.041-8.8 20.189 5.33 40.948 11.189 49.948 11.231s53.986 3.25 51.079-16.763-12.838-35.06-24.8-44.116" class="cls-1"/>
                <path id="Path_96" d="M1610.862 9010.4s40.161 10.621 40.115 20.621S1643 9052 1643 9052" class="cls-1"/>
            </g>
        </g>
        <g id="Group_48">
            <g id="Group_46">
                <path id="Path_97" d="M906.219 9296.826c6.016-13.74 27.89-50.23 32.243-52.691s85.845-2.583 85.845-2.583 59.12-17.342 25.811-29.525-57.875-10.934-65.559-12.332-61.015-2.266-76.078 9.7a230.186 230.186 0 0 0-26.909 25.553s20.548-44.932 23.916-49.133 47.989-51.255 54.839-57.425 36.937-48.453 25.618-68.475-22.945-3.915-29.41 2.838c-4.638 4.846-1.891 6.813-24.183 26.309s-62.524 56.025-65.286 63.331-24.977 37.1-24.977 37.1 16.514-34.6 20.411-45.989 28.5-60.5 29.451-74.179c.649-9.348-13.78-24.374-24.642-9.044S816.625 9136.7 812.5 9146.5c-8 19-26 57-26 57s-7.618 151.639-29 189-42.64 33.19-55.206 41.442" class="cls-1"/>
                <path id="Path_98" d="M979.927 9060.442s-14.2 12.317-18.546 13.931c-4.381 1.627-9.424-.416-9.424-.416" class="cls-1"/>
                <path id="Path_99" d="M884 9058s-8.347 21.379-16.97 26.824C862 9088 853 9082 853 9082" class="cls-1"/>
                <path id="Path_100" d="M885.954 9158.371S877.386 9143.974 872 9147" class="cls-1"/>
            </g>
            <path id="Path_101" d="M1106.774 9235.943q1.263-.882 2.534-1.622c19.108-11.28 37.321.3 48.578 17.433a12.906 12.906 0 0 0 11.12 5.865 13.378 13.378 0 0 0 9.191-3.9l28.351-61.371-67.47-31.169a13.143 13.143 0 0 1 2.086-20.181c17.9-11.749 29.721-31.087 15.816-51.11a34.723 34.723 0 0 0-11.85-10.556l-4.583-2.117c-11.246-4.291-24.525-3.146-34.609 4.332-13.038 9.707-12.5 23.8-11.229 38.488a13.173 13.173 0 0 1-13.925 14.215l-66.364-30.658-83.262 180.236 5.954 2.75 180.221 83.255 5.954 2.75 27.84-60.265a13.181 13.181 0 0 0-14.206-14.1c-14.685 1.273-28.781 1.81-38.486-11.233-7.48-10.079-8.625-23.357-4.334-34.6l2.117-4.583a34.694 34.694 0 0 1 10.556-11.85z" class="cls-2"/>
            <g id="Group_47">
                <path id="Path_102" d="M775.852 9568.115s11.352-27.67 29.556-48.3 39.1-32.443 77.439-35.74 81.068-69.956 89.924-80.706 45.415-57.841 56.125-67.342 33.268-32.594 9.08-45.914c-5.976-3.113-27.809-4.608-40.991 12.836-12.589 16.658-30.277 29.753-38.112 34.183s-45.531 29.188-52.763 10.3-5.908-36.865.109-50.606" class="cls-1"/>
                <path id="Path_103" d="M1031 9289s-31.175 30.148-26.253 38.853 14.2 14.95 14.2 14.95" class="cls-1"/>
            </g>
        </g>
        <g id="Group_51">
            <g id="Group_49">
                <path id="Path_104" d="M1738.5 9901.5s-71.682-134.586-75.092-197.3 1.574-190.36-20.634-207.282-126.905-50.247-126.905-50.247" class="cls-1"/>
                <path id="Path_105" d="M1458.114 9487.647s-44.179 94.286-34.591 111.482 31.359-1.705 42.052-12.175A45.042 45.042 0 0 0 1478 9563" class="cls-1"/>
                <path id="Path_106" d="M1488.713 9628.4s-15.65 20.5-24.081 9.424-12.11-39.551-12.11-39.551" class="cls-1"/>
                <path id="Path_107" d="M1502.776 9677.132s-2.215 16.324-19.577 14.208c-6.515-.794-6.713-50.817-6.713-50.817" class="cls-1"/>
            </g>
            <path id="Path_108" d="M1563.629 9309.1l-27.337 196.636-210.2-29.224 9.127-65.648a13.18 13.18 0 0 0-17.713-9.474c-13.683 5.482-27.016 10.088-40.09.426-10.084-7.474-15.036-19.848-14.2-31.855l.7-5a34.692 34.692 0 0 1 6.66-14.4c15.123-19.126 37.061-13.422 53.5.288a13.149 13.149 0 0 0 20.059-4.111l9.294-66.855 73.8 10.259a13.385 13.385 0 0 1 6.492 7.625 12.918 12.918 0 0 1-2.354 12.448c-13.71 16.44-19.413 38.378-.287 53.5a34.707 34.707 0 0 0 14.4 6.66l5 .7c12.008.841 24.382-4.111 31.854-14.2 9.664-13.074 5.057-26.407-.425-40.09a12.762 12.762 0 0 1 1.309-12.138 13.533 13.533 0 0 1 8.193-5.583l72.217 10.04z" class="cls-2"/>
            <g id="Group_50">
                <path id="Path_109" d="M1537.337 9536.425c-10.2 1.928-7.934-19.62-19.226-68.175s-29.995-74.636-56.505-69.624-10.478 61.42-7.779 75.694 19.135 39.994 31.941 136.222c13.756 103.373 61.8 130.577 61.8 130.577L1568.5 9912.5" class="cls-1"/>
                <path id="Path_110" d="M1447.193 9425.209s7.674 31.242 12.954 31.128 36.039-10.349 35.232-14.614-6.41-32.406-10.379-37.723" class="cls-1"/>
            </g>
        </g>
        <g id="Group_54">
            <g id="Group_52">
                <path id="Path_111" d="M944.5 8439.5s57.343 103.1 60.753 165.82-1.574 190.358 20.634 207.28 126.905 50.248 126.905 50.248" class="cls-1"/>
                <path id="Path_112" d="M1210.547 8821.868s44.179-94.286 34.591-111.482-31.359 1.705-42.052 12.175A42.443 42.443 0 0 0 1191 8746" class="cls-1"/>
                <path id="Path_113" d="M1179.949 8681.117s15.649-20.5 24.08-9.425 12.11 39.551 12.11 39.551" class="cls-1"/>
                <path id="Path_114" d="M1167 8633s1.1-16.94 18.462-14.824c6.515.794 6.713 50.818 6.713 50.818" class="cls-1"/>
            </g>
            <path id="Path_115" d="M1066.108 8961.255l41.6-194.12 207.512 44.466-13.887 64.81a13.179 13.179 0 0 0 16.975 10.739c14.046-4.471 27.679-8.093 40.014 2.5 9.513 8.188 13.549 20.89 11.836 32.8l-1.058 4.936a34.691 34.691 0 0 1-7.692 13.881c-16.477 17.973-37.94 10.685-53.337-4.187a13.148 13.148 0 0 0-20.305 2.639l-14.142 66-72.855-15.611a13.379 13.379 0 0 1-5.918-8.077 12.923 12.923 0 0 1 3.255-12.244c14.871-15.4 22.159-36.86 4.186-53.337a34.7 34.7 0 0 0-13.88-7.692l-4.937-1.058c-11.915-1.713-24.616 2.323-32.8 11.836-10.591 12.335-6.968 25.968-2.5 40.014a12.759 12.759 0 0 1-2.19 12.01 13.533 13.533 0 0 1-8.579 4.972l-71.292-15.277z" class="cls-2"/>
            <g id="Group_53">
                <path id="Path_116" d="M1131.324 8773.09c10.2-1.928 7.934 19.621 19.227 68.176s29.994 74.637 56.5 69.623 10.478-61.419 7.779-75.692-19.135-39.994-31.941-136.224c-13.756-103.372-61.8-130.575-61.8-130.575l-2.593-96.9" class="cls-1"/>
                <path id="Path_117" d="M1221.468 8884.307s-7.674-31.242-12.954-31.128-36.038 10.349-35.232 14.614 5.807 36.6 10.718 39.207" class="cls-1"/>
            </g>
        </g>
    </g>
</svg>
