<svg xmlns="http://www.w3.org/2000/svg" width="187.5" height="187.5">
    <defs>
        <style>
            .cls-2{fill:#4668d5}
        </style>
    </defs>
    <g id="Group_165" data-name="Group 165" transform="translate(-3336.03 -1339.108)">
        <circle id="Ellipse_48" data-name="Ellipse 48" cx="93.75" cy="93.75" r="93.75" transform="translate(3336.03 1339.108)" style="fill:#e1e7ff"/>
        <g id="Group_164" data-name="Group 164">
            <path id="Path_141" data-name="Path 141" class="cls-2" d="M3424.138 1455.935c-.363-8.1 3.908-15.491 10.2-20.211a28.681 28.681 0 0 0-23.179-3.494 29.147 29.147 0 0 0-21.416 27.414 4.309 4.309 0 0 0 4.681 4.794H3425.849a28.174 28.174 0 0 1-1.711-8.503z"/>
            <path id="Path_142" data-name="Path 142" class="cls-2" d="M3418.81 1389.892a16.621 16.621 0 1 1-16.67 16.634 16.58 16.58 0 0 1 16.67-16.634z"/>
        </g>
        <circle id="Ellipse_49" data-name="Ellipse 49" cx="19.652" cy="19.652" r="19.652" transform="rotate(-45 3467.664 -3402.558)" style="stroke-width:1.5px;fill:none;stroke:#0c0e17;stroke-linecap:round;stroke-linejoin:round"/>
        <path id="Path_143" data-name="Path 143" d="m3441.44 1458.677 5.459 4.913 12.01-12.555" style="stroke-width:3px;fill:none;stroke:#0c0e17;stroke-linecap:round;stroke-linejoin:round"/>
    </g>
</svg>
