<svg xmlns="http://www.w3.org/2000/svg" width="574.165" height="937.747" viewBox="0 0 574.165 937.747">
    <defs>
        <style>
            .cls-1{fill:#fff}.cls-2{fill:#964bac}
        </style>
    </defs>
    <g id="Group_88" transform="translate(-3255.163 -501.37)">
        <rect id="Rectangle_27" width="472" height="775" class="cls-1" rx="30.903" transform="translate(3306.5 564)"/>
        <g id="Group_87">
            <path id="Path_27" d="M3773.094 836.441l.157 4.081 41.1-1.81-.55-15.18a2.707 2.707 0 0 1 3.807-1.57c2.678 1.4 5.3 2.623 8.172.905a7.554 7.554 0 0 0 2.447-10.323c-2.707-4.21-7.291-3.509-10.94-1.052a2.662 2.662 0 0 1-2.243.35 2.607 2.607 0 0 1-1.759-1.588l-.4-10.582-.2-5.06-41.1 2.29 1.507 39.539z" class="cls-2"/>
            <g id="Group_9">
                <rect id="Rectangle_28" width="361.003" height="435.046" fill="#faf3ff" rx="9.436" transform="translate(3361.215 694.39)"/>
                <path id="Rectangle_29" d="M0 0H278.098V20.989H0z" class="cls-1" transform="translate(3391.648 863.931)"/>
                <path id="Rectangle_30" d="M0 0H286.494V14.692H0z" class="cls-1" transform="translate(3391.648 923.748)"/>
                <path id="Rectangle_31" d="M0 0H286.494V14.692H0z" class="cls-1" transform="translate(3391.648 968.874)"/>
                <path id="Rectangle_32" d="M0 0H89.201V40.928H0z" class="cls-1" transform="translate(3391.648 1031.839)"/>
                <path id="Rectangle_33" d="M0 0H98.646V40.928H0z" class="cls-1" transform="translate(3497.64 1031.839)"/>
                <path id="Rectangle_34" d="M0 0H79.756V40.928H0z" class="cls-1" transform="translate(3607.83 1031.839)"/>
                <path id="Rectangle_35" d="M0 0H153.216V18.89H0z" class="cls-1" transform="translate(3536.469 805.163)"/>
                <circle id="Ellipse_2" cx="61.916" cy="61.916" r="61.916" fill="#d1a4f8" opacity="0.4" transform="translate(3383.253 709.665)"/>
            </g>
            <path id="Path_28" d="M3662.38 1035.909a15.875 15.875 0 0 1 7.678 1.731q4.413 2.2 8.663 4.69c3.283 1.937 6.894 2.626 10.574 3.151 3.085.441 6.194.679 9.258 1.305a13.878 13.878 0 0 1 9.419 6.812c2.591 4.264 4.549 8.846 6.775 13.293a5.927 5.927 0 0 0 1.1 1.583c3.3 3.318 6.777 6.469 9.941 9.927.637.695 1.256 1.407 1.878 2.115 2.577 2.932 3.1 6.424 2.72 10.142-.364 3.594-1.251 7.1-1.846 10.656a36.188 36.188 0 0 0 .685 13.448 57.363 57.363 0 0 1 1.2 8.091 14.033 14.033 0 0 1-3.671 10.48 49.4 49.4 0 0 1-5.368 5.246 35.139 35.139 0 0 0-9.816 13.531c-.757 1.8-1.678 3.52-2.552 5.265a15.142 15.142 0 0 1-12.473 8.675c-2.966.361-5.917.841-8.881 1.219-4.388.559-8.258 2.426-12.025 4.609a41.132 41.132 0 0 1-7.68 3.8 15.247 15.247 0 0 1-11.315-.459 68.2 68.2 0 0 1-7.253-3.8 34.391 34.391 0 0 0-14.158-4.619c-2.58-.276-5.141-.754-7.7-1.183-4.771-.8-7.991-3.707-10.313-7.75a117.554 117.554 0 0 1-5.252-10.567 17.992 17.992 0 0 0-4.309-5.69c-3.183-3.024-6.3-6.114-9.245-9.378s-3.386-7.121-3-11.218c.3-3.176 1.127-6.265 1.7-9.4a35.169 35.169 0 0 0-.325-12.879 62.992 62.992 0 0 1-1.493-9.52 13.157 13.157 0 0 1 4.055-10.188c2.491-2.476 4.844-5.094 7.388-7.513a31.4 31.4 0 0 0 7.113-10.615 63.689 63.689 0 0 1 3.051-6.214 15.986 15.986 0 0 1 12.717-8.44c2.935-.342 5.862-.763 8.787-1.188a25.928 25.928 0 0 0 8.029-2.624c3.364-1.707 6.73-3.411 10.114-5.078a10.584 10.584 0 0 1 5.83-1.446z"/>
            <g id="Group_10">
                <path id="Path_29" fill="#4668d5" d="M3655.046 1133.513a3.863 3.863 0 0 1-2.624-1.027l-18.769-17.353a3.864 3.864 0 1 1 5.247-5.675l15.827 14.634 27.844-32.377a3.865 3.865 0 1 1 5.86 5.04l-30.455 35.414a3.868 3.868 0 0 1-2.71 1.338c-.073.004-.147.006-.22.006z"/>
            </g>
            <path id="Path_33" d="M3255.163 607.824q15.793 8.991 31.856 8.77a55.033 55.033 0 0 0 29.411-8.756 66.3 66.3 0 0 0 21.961-23.564 64.891 64.891 0 0 0 9-30.74 54.063 54.063 0 0 0-7.578-29.382q-7.974-13.665-23.953-22.782l-18.213 31.936q12.285 7 15.522 16.729a22.368 22.368 0 0 1-1.943 18.751 23.536 23.536 0 0 1-15.325 11.531q-10.24 2.57-22.525-4.444l-18.213 31.951z" class="cls-2"/>
            <path id="Path_34" fill="none" stroke="#964bac" stroke-miterlimit="10" stroke-width="1.5px" d="M3468.1 1373.973a65.2 65.2 0 0 0-8.757-30.8 54.278 54.278 0 0 0-22.063-20.8q-14.07-7.309-32.439-6.482-18.132.8-31.623 9.42a54.392 54.392 0 0 0-20.226 22.9 69.689 69.689 0 0 0 2.759 62.47 54.5 54.5 0 0 0 22.168 21.01q14.187 7.4 32.329 6.6 18.162-.8 31.638-9.538a55.1 55.1 0 0 0 20.218-23.078 66.58 66.58 0 0 0 5.996-31.702zm-38.047 19.372q-7.279 7.6-21.427 8.224-14.118.62-22.04-6.113a23.984 23.984 0 0 1-1.657-34.918q7.179-7.309 21.535-7.929 14.146-.621 22.051 5.891a22.231 22.231 0 0 1 8.349 16.861 23.594 23.594 0 0 1-6.807 17.984z"/>
        </g>
    </g>
</svg>
