<svg xmlns="http://www.w3.org/2000/svg" width="1418.343" height="721.73" viewBox="0 0 1418.343 721.73">
    <defs>
        <style>
            .cls-1{fill:#964bac;opacity:.1}.cls-4{fill:#d1a4f8}
        </style>
    </defs>
    <g id="Group_108" transform="translate(-210.03 -4388.861)">
        <path id="Path_128" d="M1287.065 4472.831l2.572 5.886 59.139-26.235-9.517-21.912a4.255 4.255 0 0 1 4.674-4.484c4.727.518 9.263.8 12.485-3.365a11.881 11.881 0 0 0-2.341-16.52c-6.38-4.611-12.69-.954-16.623 4.737a4.19 4.19 0 0 1-3.084 1.8 4.1 4.1 0 0 1-3.486-1.317l-6.654-15.266-3.2-7.295-58.866 26.939 24.9 57.031z" class="cls-1"/>
        <path id="Path_129" d="M901.369 4868q35.784 20.373 72.18 19.871a124.724 124.724 0 0 0 66.64-19.838c20.217-12.879 36.83-30.745 49.76-53.393q19.457-34.124 20.391-69.652a122.5 122.5 0 0 0-17.169-66.573q-18.07-30.963-54.273-51.621l-41.269 72.362q27.835 15.856 35.17 37.9c4.778 14.719 3.362 28.837-4.4 42.487q-11.592 20.324-34.722 26.127-23.207 5.821-51.039-10.069L901.369 4868z" class="cls-1"/>
        <path id="Path_130" fill="none" stroke="#964bac" stroke-miterlimit="10" stroke-width="1.5px" d="M1627.5 4874.668c-.788-17.824-5.318-33.751-13.553-47.666a84.008 84.008 0 0 0-34.145-32.2q-21.776-11.312-50.205-10.031-28.062 1.235-48.941 14.578a84.192 84.192 0 0 0-31.3 35.441q-10.5 22.039-9.318 48.832t13.589 47.849a84.36 84.36 0 0 0 34.307 32.516q21.957 11.449 50.034 10.214 28.109-1.235 48.964-14.761a85.28 85.28 0 0 0 31.291-35.715q10.447-22.277 9.277-49.057zm-58.884 29.98q-11.266 11.755-33.16 12.728-21.851.96-34.112-9.461a35.41 35.41 0 0 1-12.967-26.415q-.723-16.348 10.4-27.626 11.109-11.312 33.327-12.271 21.9-.96 34.127 9.117a34.4 34.4 0 0 1 12.922 26.1 36.515 36.515 0 0 1-10.534 27.828z" opacity="0.2"/>
        <g id="Group_81" opacity="0.3">
            <g id="Group_79">
                <path id="Path_131" d="M440.137 5107.215a.358.358 0 0 1-.065-.007l-61.482-13.516a.323.323 0 0 1-.054-.016.36.36 0 0 1-.051-.027L283.04 5034.6a.319.319 0 0 1-.051-.039.276.276 0 0 1-.032-.039l-42.43-60.322a.3.3 0 0 1-.033-.06l-.008-.019-24.949-69.093v-.009a.316.316 0 0 1-.01-.074l-2.111-81.209a.37.37 0 0 1 0-.058l.006-.025 14-61.463a.286.286 0 0 1 .033-.089l24.146-42.348.01-.016.02-.027 40.39-47.965a.288.288 0 0 1 .063-.057l57.763-40.006a.331.331 0 0 1 .037-.022l.032-.014 34.546-13.5a.3.3 0 0 1 .369.123.306.306 0 0 1-.052.385l-14.269 13.083 26.657.146 9.49-20.788a.3.3 0 0 1 .236-.175l44.008-5.954a.091.091 0 0 1 .053 0 .324.324 0 0 1 .068.009l66.726 15.831 4.792-8.872a.3.3 0 0 1 .38-.138l63.91 25.4.016.008a.349.349 0 0 1 .061.037L645.365 4682a.432.432 0 0 1 .045.041l.023.027 38.438 53.283.022.034.018.038 23.146 58.322a.3.3 0 0 1-.138.38l-9.867 5.306 4.454 21.694 11.261 3.6a.306.306 0 0 1 .212.286l.642 55.156a.241.241 0 0 1 0 .038.266.266 0 0 1-.006.034l-10.089 51.319a.305.305 0 0 1-.455.2l-4.169-2.5-13.832 46.085-.009.026a.32.32 0 0 1-.043.074l-42.22 57.266a.254.254 0 0 1-.049.055l-.009.007-62.767 46.76a.3.3 0 0 1-.323.025.3.3 0 0 1-.163-.279l.379-11.351-60.9 34.05a.3.3 0 0 1-.239.025l-121.919-35.827 43.551 40.5a.3.3 0 0 1-.207.527zm-61.167-14.062l60.143 13.221-43.625-40.567-14.584-4.046zm18.131-27.508l121.276 35.638-12.553-50.167zm109.331-14.609l12.513 50 44.362-57.606zm57.731-7.716l-44.215 57.414 59.929-33.506.871-26.125zm-215.5 9.5l29.736 39.732 1.901-30.952zm-63.494-17.62l92.275 57.091-29.744-39.741zm295.306 32.394l-.37 11.087 58.528-43.6zm.885-26.571l-.862 25.86 60.511-33.831zM381.2 5057l14.39 8.149 39.485-40-52.02 1.729zm54.759-31.879l-39.474 39.988 109.193-14.593-6.877-27.482zm-55.014 36.014l12.394 3.438-12.181-6.9zm-32.878-9.122l32.278 8.956.224-3.627-49.485-28.022zm-17.005-23.405l49.549 28.058 1.834-29.767zm-46.33 5.833l62.376 17.306-17.275-23.084zm214.691-11.428l6.863 27.423 57.55-7.691 17.288-22.448zm82-2.107l-16.731 21.724 16.079-2.148zm.629-.563l-.669 20.057 59.353-7.931zM276.8 4996.316l6.645 37.684 45.624-5.845zm-34.937-21.28l40.4 57.446-13.555-41.094zm340.9 44.836l59.595 12.316 16.931-45.53zm77.3-33.55l-16.47 44.294 40.273-54.626zm-390.55 5.554l12.654 38.36-6.058-34.342zm116.645-25.229l-55.48 61.369 51.805-1.721zm-60.725 2.889l4.784 58.083 55.577-61.476zm-52.481 2.951l56.648 55.073-4.775-57.99zm3.709 23.032l51.161 31.16L272.7 4973.1zm110.139-29.394l-3.706 60.149 52.6-1.748 50.3-50.952zm99.71 7.794l-49.931 50.581 62.068-2.062zm.618-.037l12.145 48.531 81.258-2.7zm.489-.437l93.786 46.017-6.216-63.253zm125.154-24.635l-30.427 70.581 77.24-33.525 18.562-49.922zm-36.985 7.28l6.161 62.683 30.1-69.82zm-306.567 34.894l6.75 4.113-3.978-22.555-8.693.5zm-27.451-16.719l26.648 16.232-5.747-17.423zM678.5 4936.74l-18.142 48.79 24.086-10.455zm-2.467-21.213l2.89 19.97 5.953 38.389 13.492-44.949zm-459.338-9.1l24.291 67.272 21.486-1.226-6.22-18.857zm170.095 59.084l99.15 7.448-90.612-100.579-17.828 11.662zm180.707-87.545l-80.033 94.886 87.662-17.254zm-103.759-49.922l23.132 144.57 80.371-95.29zM257.3 4954.88l5.792 17.559 8.521-.485zm138.537-82.837l90.365 100.309-23.091-144.318zm-75 49.231l-47.858 50.6 51.786-2.912zm-64.055 32.043l15.464 18.448 48.217-50.969-78.249-11.641zm64.659-32.12l3.932 47.733 60.229-3.386zm.19-.609l64.5 44.579-9.2-80.752zm246.43-42.984l7.654 77.879 36.613-7.207 24.271-56.3zm-351.5 27.734l39.163 46.719-14.186-43zm420.6-13.14l-24.113 55.935 65.214-12.835-2.919-20.175zm61.91 36.461l3.929 2.358 8.8-44.778zm-23.167-13.909l22.63 13.586 14.343-47.786-41.021 6.228zm-433.909-6.243l78.292 11.648-36.079-40.055-45.993 16.91zm42.815-28.634l36.02 39.975 4.072-54.717zm40.719-14.973l-4.064 54.607 50.7-71.753zm47.236-16.942l-50.526 71.511 54.6-35.732zm265.136 43.974l37.33 22.413-3.977-27.476zm-420.868 12.861l24.289 3.615-3.691-11.188zm11.633-34.751l-12.35 34.366 21.124-7.766zm-14.61-44.289l2.016 77.538 12.284-34.187zM229 4869.112l9.012 27.319 45.744-16.82-41.842-46.436zm432.5-49.66l-24.033 71.931 33.7-5.116zm-92.987 57.626l67.988 14.26-19.844-44.538zm48.652-30.61l19.816 44.453 24.078-72.07zm44.907-27.3l9.7 67.012 40.957-6.218zM373.4 4848.04l4.025 35.324 17.49-11.441zm-131.094-15.354l42.079 46.7 40.58-14.921 5.674-76.238zm419.8-14.454l50.675 60.819-11.796-57.451-28.317-9.05zm39.547 3.58L712.978 4877l-.6-51.761zm-237.492 5.761l103.361 49.213 21.828-90.6zm125.7-40.9l-21.661 89.893 48.208-30.332zm-216.288 60.642l21.863 24.268 66.369-43.417zm-159.38-23.151l14.517 44.008 12.716-35.386zm117.036-35.586l-5.631 75.654 46.92-17.252zm.518-.321l41.381 58.531 89.005-19.316zm258.632-1.919l26.552 59.566 44.063-27.721zm-376.3 37.151l27.343 8.657-13.72-68.47zm33.848-55.966l-5.754 64.551 87.946-44.265zm-19.813-4.891l13.592 67.833 5.623-63.09zm248.989-10.387l-13.362 74.825 125.026-41.323zm-145.38 35.368l130.62 39.287-71.6-76.118zm59.556-37.158l71.879 76.416 13.358-74.8-59.3-17.793zm282.143 61.691l27.431 8.768-4.348-21.182zm-78.671-24.5l66.52 30-1.1-9.089zm69.416 22.185l-2.053 7.71 9.758-5.247zm-3.358-1.073l.942 7.78 1.835-6.893zm3.514.484l8.293 2.651 23.762-12.778-12.788-62.255zm-3.594-1.148l3.015.963 19.419-72.922-29.249 15.644zm-70.174-22.428l69.537 22.223-6.755-55.8zm94.076-46.8l12.307 59.947 9.465-5.091zm-412.417-10.186l58.655 58.489 27.533-70.336zm-24.242 38.231l82.02 20.244-58.453-58.288-21.662 16.677zm111.01-49.891l-27.382 69.948 58.718-36.635zm118.218 34.624l111.423 33.429-100.486-94.68zm11.768-61.3l100.481 94.675-1.472-71.529zm135.29 31.627L590.508 4785l62.743-33.562-2.827-23.352zm-35.669-8.338l1.46 70.938 33.6-62.743zM228.4 4762.08l18.977 4.684 1.846-20.715zm23.034-40.84l-22.492 39.446 20.665-18.948zm-1.907 21.4l-16.392 15.031 16.161-12.443zm168.364-8.788l58.725 17.619 10.9-61.061zm233.166-5.617l2.771 22.9 28.947-15.482zm-291.182-11.154l30.97 32.919 25.581-15.96zm-109.685 24.946l-.24 2.693 21.021-16.184-4.112-1.792zm1.935-21.7l-1.855 20.8 15.978-14.651zm398.853 7.264l31.929 7.465-37.279-51.674zm-290.863-11.073l57 17.1 69.22-43.187zm-67.792-13.12l-20.036 24.661 85.753-11.787-46.121-30.842zm-24.974 22.9l4.041 1.761 3.008-8.224zm357.207-4.882l25.791 6.029-5.349-44.2zm-349.183-2.475l-2.9 7.923 16.774-20.646zm-23.019.824l14.385 6.267 8.114-7.439 16.519-45.165zM588.576 4713l35.367 8.268 20.72-38.695-56.657 2.717zM292.4 4672.377l-16.576 45.318 16.053-14.719 16.293-20.054zm97.6-23.368l-30.6 67.032 127.515-26.354zm-77.621 36l46.124 30.844-6.987-66.73zm39.7-36.4l6.984 66.713 30.379-66.547-25.755-10.81zm138.051 41.379l97.836 22.871-.566-27.537zm-181.447-6.724l-13.727 16.9 16.444-15.084zm252.34-31.856l-71.737 38.011 98.1-4.705-.489-23.725zm-170.766-2.951l97.1 40.757-24.672-56.391-65.127-.358zm121.518-15.283l-23.229 55.95 71.712-38zm-48.425-.347l24.582 56.186 23.219-55.924zm124.162 28.389l.482 23.469 55.688-2.671zm-278.444 21.574l2.794 1.868 39.579-36.291-1.644-15.707zm-16.277-10.89l15.767 10.544 39.879-49.083zm294.7-11.343l55.9 20.7-56.362-43.184zm-25.755-9.536l25.141 9.308-.46-22.386zm-48.1-17.808l47.331 17.525 24.644-13.058zm-149.466 4.293l25.515 10.71 7.194-15.761-27.038-.148zm-13.8-5.133l1.63 15.48 11.069-10.149zm1.175-.167l12.009 5.041 5.393-4.945zm160.545.3l71.094 4.413-65.13-15.453zm6.263-11.594l64.361 15.27-59.775-23.76zm-55.279 11.3l47.1.258-58.639-26.631zm-9.154-25.959l57.545 26.135 5.975-11.064zm-56.094 25.6l64.582.355-11.657-26.643-43.618 5.9zm-46.219-.254l18 .1 13.552-12.426z" class="cls-4"/>
            </g>
            <g id="Group_80">
                <path id="Path_132" d="M353.7 4631.9a3.681 3.681 0 1 1-3.681-3.681 3.681 3.681 0 0 1 3.681 3.681z" class="cls-4"/>
                <path id="Path_133" d="M387.371 4618.4a2.8 2.8 0 1 1-2.8-2.8 2.8 2.8 0 0 1 2.8 2.8z" class="cls-4"/>
                <path id="Path_134" d="M231.394 4762.224a3.681 3.681 0 1 1-3.681-3.681 3.681 3.681 0 0 1 3.681 3.681z" class="cls-4"/>
                <path id="Path_135" d="M217.392 4823.7a3.681 3.681 0 1 1-3.681-3.681 3.681 3.681 0 0 1 3.681 3.681z" class="cls-4"/>
                <path id="Path_136" d="M286.877 5034.336a3.681 3.681 0 1 1-3.681-3.681 3.681 3.681 0 0 1 3.681 3.681z" class="cls-4"/>
                <path id="Path_137" d="M399.322 5065.533a3.681 3.681 0 1 1-3.681-3.681 3.681 3.681 0 0 1 3.681 3.681z" class="cls-4"/>
                <circle id="Ellipse_19" cx="3.681" cy="3.681" r="3.681" class="cls-4" transform="translate(326.287 5024.663)"/>
                <path id="Path_138" d="M585.438 5019.977a3.681 3.681 0 1 1-3.681-3.681 3.681 3.681 0 0 1 3.681 3.681z" class="cls-4"/>
                <path id="Path_139" d="M640.715 4891.758a3.681 3.681 0 1 1-3.681-3.681 3.681 3.681 0 0 1 3.681 3.681z" class="cls-4"/>
                <path id="Path_140" d="M571.407 4877.22a3.681 3.681 0 1 1-3.681-3.681 3.681 3.681 0 0 1 3.681 3.681z" class="cls-4"/>
                <path id="Path_141" d="M585.438 5019.977a3.681 3.681 0 1 1-3.681-3.681 3.681 3.681 0 0 1 3.681 3.681z" class="cls-4"/>
                <path id="Path_142" d="M490.352 4973.321a3.681 3.681 0 1 1-3.681-3.681 3.681 3.681 0 0 1 3.681 3.681z" class="cls-4"/>
                <path id="Path_143" d="M682.3 4935.54a3.681 3.681 0 1 1-3.681-3.681 3.681 3.681 0 0 1 3.681 3.681z" class="cls-4"/>
                <path id="Path_144" d="M665.31 4818.14a3.681 3.681 0 1 1-3.681-3.681 3.681 3.681 0 0 1 3.681 3.681z" class="cls-4"/>
                <circle id="Ellipse_20" cx="3.681" cy="3.681" r="3.681" class="cls-4" transform="translate(709.638 4876.496)"/>
                <path id="Path_145" d="M640.715 4891.758a3.681 3.681 0 1 1-3.681-3.681 3.681 3.681 0 0 1 3.681 3.681z" class="cls-4"/>
                <path id="Path_146" d="M706.02 4931.5a2.792 2.792 0 1 1-2.791-2.791 2.792 2.792 0 0 1 2.791 2.791z" class="cls-4"/>
                <circle id="Ellipse_21" cx="3.681" cy="3.681" r="3.681" class="cls-4" transform="translate(709.638 4876.496)"/>
                <circle id="Ellipse_22" cx="3.681" cy="3.681" r="3.681" class="cls-4" transform="translate(681.097 4971.579)"/>
                <path id="Path_147" d="M682.3 4935.54a3.681 3.681 0 1 1-3.681-3.681 3.681 3.681 0 0 1 3.681 3.681z" class="cls-4"/>
                <path id="Path_148" d="M646.23 5032.539a3.681 3.681 0 1 1-3.681-3.681 3.681 3.681 0 0 1 3.681 3.681z" class="cls-4"/>
                <path id="Path_149" d="M688.88 4975.26a4.1 4.1 0 1 1-4.1-4.1 4.1 4.1 0 0 1 4.1 4.1z" class="cls-4"/>
                <path id="Path_150" d="M585.438 5019.977a3.681 3.681 0 1 1-3.681-3.681 3.681 3.681 0 0 1 3.681 3.681z" class="cls-4"/>
                <path id="Path_151" d="M646.23 5032.539a3.681 3.681 0 1 1-3.681-3.681 3.681 3.681 0 0 1 3.681 3.681z" class="cls-4"/>
                <path id="Path_152" d="M584.187 5079.3a4.407 4.407 0 1 1-4.407-4.407 4.407 4.407 0 0 1 4.407 4.407z" class="cls-4"/>
                <path id="Path_153" d="M587.363 5019.977a5.606 5.606 0 1 1-5.606-5.606 5.605 5.605 0 0 1 5.606 5.606z" class="cls-4"/>
                <path id="Path_154" d="M522.483 5101.723a3.681 3.681 0 1 1-3.681-3.681 3.681 3.681 0 0 1 3.681 3.681z" class="cls-4"/>
                <path id="Path_155" d="M646.23 5032.539a3.681 3.681 0 1 1-3.681-3.681 3.681 3.681 0 0 1 3.681 3.681z" class="cls-4"/>
                <path id="Path_156" d="M399.322 5065.533a3.681 3.681 0 1 1-3.681-3.681 3.681 3.681 0 0 1 3.681 3.681z" class="cls-4"/>
                <path id="Path_157" d="M490.352 4973.321a3.681 3.681 0 1 1-3.681-3.681 3.681 3.681 0 0 1 3.681 3.681z" class="cls-4"/>
                <path id="Path_158" d="M522.483 5101.723a3.681 3.681 0 1 1-3.681-3.681 3.681 3.681 0 0 1 3.681 3.681z" class="cls-4"/>
                <path id="Path_159" d="M401.864 5065.533a6.223 6.223 0 1 1-6.223-6.222 6.223 6.223 0 0 1 6.223 6.222z" class="cls-4"/>
                <path id="Path_160" d="M443.818 5106.91a3.681 3.681 0 1 1-3.681-3.681 3.681 3.681 0 0 1 3.681 3.681z" class="cls-4"/>
                <path id="Path_161" d="M382.331 5093.393a3.681 3.681 0 1 1-3.681-3.681 3.681 3.681 0 0 1 3.681 3.681z" class="cls-4"/>
                <path id="Path_162" d="M390.194 4965.8a3.681 3.681 0 1 1-3.681-3.68 3.68 3.68 0 0 1 3.681 3.68z" class="cls-4"/>
                <path id="Path_163" d="M490.352 4973.321a3.681 3.681 0 1 1-3.681-3.681 3.681 3.681 0 0 1 3.681 3.681z" class="cls-4"/>
                <path id="Path_164" d="M571.407 4877.22a3.681 3.681 0 1 1-3.681-3.681 3.681 3.681 0 0 1 3.681 3.681z" class="cls-4"/>
                <path id="Path_165" d="M665.31 4818.14a3.681 3.681 0 1 1-3.681-3.681 3.681 3.681 0 0 1 3.681 3.681z" class="cls-4"/>
                <path id="Path_166" d="M641.986 4891.758a4.952 4.952 0 1 1-4.952-4.952 4.952 4.952 0 0 1 4.952 4.952z" class="cls-4"/>
                <path id="Path_167" d="M593.45 4785.735a3.681 3.681 0 1 1-3.68-3.681 3.681 3.681 0 0 1 3.68 3.681z" class="cls-4"/>
                <path id="Path_168" d="M573.594 4877.22a5.868 5.868 0 1 1-5.868-5.868 5.868 5.868 0 0 1 5.868 5.868z" class="cls-4"/>
                <path id="Path_169" d="M467.024 4827.522a3.681 3.681 0 1 1-3.681-3.681 3.681 3.681 0 0 1 3.681 3.681z" class="cls-4"/>
                <path id="Path_170" d="M492.452 4973.321a5.781 5.781 0 1 1-5.781-5.782 5.781 5.781 0 0 1 5.781 5.782z" class="cls-4"/>
                <path id="Path_171" d="M376.671 4847.131a3.681 3.681 0 1 1-3.681-3.681 3.681 3.681 0 0 1 3.681 3.681z" class="cls-4"/>
                <path id="Path_172" d="M390.194 4965.8a3.681 3.681 0 1 1-3.681-3.68 3.68 3.68 0 0 1 3.681 3.68z" class="cls-4"/>
                <circle id="Ellipse_23" cx="3.681" cy="3.681" r="3.681" class="cls-4" transform="translate(326.287 5024.663)"/>
                <path id="Path_173" d="M383.157 5093.393a4.507 4.507 0 1 1-4.507-4.507 4.507 4.507 0 0 1 4.507 4.507z" class="cls-4"/>
                <path id="Path_174" d="M286.877 5034.336a3.681 3.681 0 1 1-3.681-3.681 3.681 3.681 0 0 1 3.681 3.681z" class="cls-4"/>
                <circle id="Ellipse_24" cx="3.681" cy="3.681" r="3.681" class="cls-4" transform="translate(326.287 5024.663)"/>
                <path id="Path_175" d="M324.775 4920.58a3.681 3.681 0 1 1-3.681-3.681 3.681 3.681 0 0 1 3.681 3.681z" class="cls-4"/>
                <path id="Path_176" d="M390.194 4965.8a3.681 3.681 0 1 1-3.681-3.68 3.68 3.68 0 0 1 3.681 3.68z" class="cls-4"/>
                <path id="Path_177" d="M275.922 4972.222a3.682 3.682 0 1 1-3.682-3.681 3.682 3.682 0 0 1 3.682 3.681z" class="cls-4"/>
                <circle id="Ellipse_25" cx="3.681" cy="3.681" r="3.681" class="cls-4" transform="translate(326.287 5024.663)"/>
                <path id="Path_178" d="M244.454 4974.017a3.681 3.681 0 1 1-3.681-3.681 3.681 3.681 0 0 1 3.681 3.681z" class="cls-4"/>
                <path id="Path_179" d="M286.877 5034.336a3.681 3.681 0 1 1-3.681-3.681 3.681 3.681 0 0 1 3.681 3.681z" class="cls-4"/>
                <path id="Path_180" d="M275.922 4972.222a3.682 3.682 0 1 1-3.682-3.681 3.682 3.682 0 0 1 3.682 3.681z" class="cls-4"/>
                <path id="Path_181" d="M244.454 4974.017a3.681 3.681 0 1 1-3.681-3.681 3.681 3.681 0 0 1 3.681 3.681z" class="cls-4"/>
                <path id="Path_182" d="M219.5 4904.919a3.681 3.681 0 1 1-3.681-3.681 3.681 3.681 0 0 1 3.681 3.681z" class="cls-4"/>
                <path id="Path_183" d="M277.061 4972.222a4.82 4.82 0 1 1-4.821-4.82 4.82 4.82 0 0 1 4.821 4.82z" class="cls-4"/>
                <path id="Path_184" d="M324.775 4920.58a3.681 3.681 0 1 1-3.681-3.681 3.681 3.681 0 0 1 3.681 3.681z" class="cls-4"/>
                <path id="Path_185" d="M467.024 4827.522a3.681 3.681 0 1 1-3.681-3.681 3.681 3.681 0 0 1 3.681 3.681z" class="cls-4"/>
                <path id="Path_186" d="M593.45 4785.735a3.681 3.681 0 1 1-3.68-3.681 3.681 3.681 0 0 1 3.68 3.681z" class="cls-4"/>
                <path id="Path_187" d="M714.934 4825.017a2.257 2.257 0 1 1-2.257-2.257 2.257 2.257 0 0 1 2.257 2.257z" class="cls-4"/>
                <circle id="Ellipse_26" cx="3.681" cy="3.681" r="3.681" class="cls-4" transform="translate(709.638 4876.496)"/>
                <path id="Path_188" d="M687.31 4735.534a3.681 3.681 0 1 1-3.681-3.681 3.681 3.681 0 0 1 3.681 3.681z" class="cls-4"/>
                <path id="Path_189" d="M593.45 4785.735a3.681 3.681 0 1 1-3.68-3.681 3.681 3.681 0 0 1 3.68 3.681z" class="cls-4"/>
                <path id="Path_190" d="M665.31 4818.14a3.681 3.681 0 1 1-3.681-3.681 3.681 3.681 0 0 1 3.681 3.681z" class="cls-4"/>
                <path id="Path_191" d="M710.459 4793.86a3.681 3.681 0 1 1-3.681-3.681 3.681 3.681 0 0 1 3.681 3.681z" class="cls-4"/>
                <path id="Path_192" d="M687.31 4735.534a3.681 3.681 0 1 1-3.681-3.681 3.681 3.681 0 0 1 3.681 3.681z" class="cls-4"/>
                <path id="Path_193" d="M665.31 4818.14a3.681 3.681 0 1 1-3.681-3.681 3.681 3.681 0 0 1 3.681 3.681z" class="cls-4"/>
                <path id="Path_194" d="M491.619 4689.786a3.681 3.681 0 1 1-3.681-3.681 3.681 3.681 0 0 1 3.681 3.681z" class="cls-4"/>
                <path id="Path_195" d="M687.31 4735.534a3.681 3.681 0 1 1-3.681-3.681 3.681 3.681 0 0 1 3.681 3.681z" class="cls-4"/>
                <path id="Path_196" d="M593.45 4785.735a3.681 3.681 0 1 1-3.68-3.681 3.681 3.681 0 0 1 3.68 3.681z" class="cls-4"/>
                <path id="Path_197" d="M590.4 4637.448a3.681 3.681 0 1 1-3.681-3.681 3.681 3.681 0 0 1 3.681 3.681z" class="cls-4"/>
                <path id="Path_198" d="M648.1 4682.244a2.913 2.913 0 1 1-2.913-2.913 2.913 2.913 0 0 1 2.913 2.913z" class="cls-4"/>
                <path id="Path_199" d="M515.285 4632.785a3.681 3.681 0 1 1-3.681-3.681 3.681 3.681 0 0 1 3.681 3.681z" class="cls-4"/>
                <path id="Path_200" d="M526.487 4612.045a3.681 3.681 0 1 1-3.681-3.681 3.681 3.681 0 0 1 3.681 3.681z" class="cls-4"/>
                <path id="Path_201" d="M563.3 4651.1a2.218 2.218 0 1 1-2.218-2.218 2.218 2.218 0 0 1 2.218 2.218z" class="cls-4"/>
                <path id="Path_202" d="M589.412 4660.834a2.137 2.137 0 1 1-2.137-2.137 2.137 2.137 0 0 1 2.137 2.137z" class="cls-4"/>
                <path id="Path_203" d="M590.087 4713.149a2.136 2.136 0 1 1-2.136-2.137 2.137 2.137 0 0 1 2.136 2.137z" class="cls-4"/>
                <path id="Path_204" d="M589.9 4684.782a2.137 2.137 0 1 1-2.137-2.137 2.137 2.137 0 0 1 2.137 2.137z" class="cls-4"/>
                <path id="Path_205" d="M625.993 4721.665a2.137 2.137 0 1 1-2.137-2.137 2.137 2.137 0 0 1 2.137 2.137z" class="cls-4"/>
                <path id="Path_206" d="M652.692 4727.649a2.137 2.137 0 1 1-2.137-2.136 2.137 2.137 0 0 1 2.137 2.136z" class="cls-4"/>
                <path id="Path_207" d="M655.914 4751.586a2.137 2.137 0 1 1-2.137-2.136 2.137 2.137 0 0 1 2.137 2.136z" class="cls-4"/>
                <circle id="Ellipse_27" cx="2.137" cy="2.137" r="2.137" class="cls-4" transform="translate(658.225 4805.861)"/>
                <path id="Path_208" d="M674.923 4812.308a2.137 2.137 0 1 1-2.137-2.137 2.137 2.137 0 0 1 2.137 2.137z" class="cls-4"/>
                <path id="Path_209" d="M619.139 4846.032A2.137 2.137 0 1 1 617 4843.9a2.137 2.137 0 0 1 2.139 2.132z" class="cls-4"/>
                <circle id="Ellipse_28" cx="2.137" cy="2.137" r="2.137" class="cls-4" transform="translate(669.381 4884.465)"/>
                <path id="Path_210" d="M677.712 4915a2.137 2.137 0 1 1-2.137-2.137 2.137 2.137 0 0 1 2.137 2.137z" class="cls-4"/>
                <path id="Path_211" d="M615.082 4948.218a2.137 2.137 0 1 1-2.137-2.137 2.137 2.137 0 0 1 2.137 2.137z" class="cls-4"/>
                <path id="Path_212" d="M577.808 4956.332a2.137 2.137 0 1 1-2.137-2.137 2.137 2.137 0 0 1 2.137 2.137z" class="cls-4"/>
                <circle id="Ellipse_29" cx="2.137" cy="2.137" r="2.137" class="cls-4" transform="translate(504.058 5049.028)"/>
                <path id="Path_213" d="M500.978 5022.766a2.137 2.137 0 1 1-2.136-2.137 2.136 2.136 0 0 1 2.136 2.137z" class="cls-4"/>
                <path id="Path_214" d="M437.841 5025.048a2.137 2.137 0 1 1-2.137-2.137 2.137 2.137 0 0 1 2.137 2.137z" class="cls-4"/>
                <path id="Path_215" d="M382.564 5061.561a2.137 2.137 0 1 1-2.136-2.137 2.137 2.137 0 0 1 2.136 2.137z" class="cls-4"/>
                <path id="Path_216" d="M350.108 5052.433a2.137 2.137 0 1 1-2.137-2.137 2.136 2.136 0 0 1 2.137 2.137z" class="cls-4"/>
                <circle id="Ellipse_30" cx="2.137" cy="2.137" r="2.137" class="cls-4" transform="translate(380.826 5024.686)"/>
                <path id="Path_217" d="M279.364 4995.381a2.137 2.137 0 1 1-2.137-2.137 2.137 2.137 0 0 1 2.137 2.137z" class="cls-4"/>
                <path id="Path_218" d="M271 4991.324a2.137 2.137 0 1 1-2.136-2.137 2.136 2.136 0 0 1 2.136 2.137z" class="cls-4"/>
                <path id="Path_219" d="M264.911 4972.814a2.137 2.137 0 1 1-2.137-2.137 2.137 2.137 0 0 1 2.137 2.137z" class="cls-4"/>
                <path id="Path_220" d="M258.572 4954.05a2.137 2.137 0 1 1-2.137-2.137 2.137 2.137 0 0 1 2.137 2.137z" class="cls-4"/>
                <circle id="Ellipse_31" cx="2.137" cy="2.137" r="2.137" class="cls-4" transform="translate(239.592 4906.779)"/>
                <path id="Path_221" d="M240.062 4896.491a2.137 2.137 0 1 1-2.137-2.137 2.137 2.137 0 0 1 2.137 2.137z" class="cls-4"/>
                <path id="Path_222" d="M327.034 4969.264a2.137 2.137 0 1 1-2.137-2.137 2.137 2.137 0 0 1 2.137 2.137z" class="cls-4"/>
                <path id="Path_223" d="M286.464 4879.756a2.137 2.137 0 1 1-2.137-2.137 2.137 2.137 0 0 1 2.137 2.137z" class="cls-4"/>
                <path id="Path_224" d="M231.187 4868.6a2.137 2.137 0 1 1-2.137-2.137 2.137 2.137 0 0 1 2.137 2.137z" class="cls-4"/>
                <circle id="Ellipse_32" cx="2.137" cy="2.137" r="2.137" class="cls-4" transform="translate(245.898 4765.353)"/>
                <path id="Path_225" d="M294.831 4702.769a2.136 2.136 0 1 1-2.136-2.137 2.135 2.135 0 0 1 2.136 2.137z" class="cls-4"/>
                <path id="Path_226" d="M251.979 4741.818a2.137 2.137 0 1 1-2.137-2.137 2.137 2.137 0 0 1 2.137 2.137z" class="cls-4"/>
                <path id="Path_227" d="M313.849 4685.273a2.137 2.137 0 1 1-2.137-2.137 2.137 2.137 0 0 1 2.137 2.137z" class="cls-4"/>
                <path id="Path_228" d="M277.336 4719a2.137 2.137 0 1 1-2.137-2.137 2.137 2.137 0 0 1 2.137 2.137z" class="cls-4"/>
                <path id="Path_229" d="M391.946 4648.614a2.137 2.137 0 1 1-2.137-2.136 2.137 2.137 0 0 1 2.137 2.136z" class="cls-4"/>
                <path id="Path_230" d="M399.553 4632.024a2.137 2.137 0 1 1-2.137-2.136 2.137 2.137 0 0 1 2.137 2.136z" class="cls-4"/>
                <path id="Path_231" d="M365.829 4638.11a2.137 2.137 0 1 1-2.137-2.137 2.137 2.137 0 0 1 2.137 2.137z" class="cls-4"/>
                <path id="Path_232" d="M354.165 4648.76a2.137 2.137 0 1 1-2.137-2.137 2.137 2.137 0 0 1 2.137 2.137z" class="cls-4"/>
                <path id="Path_233" d="M372.422 4631.771a2.137 2.137 0 1 1-2.137-2.137 2.137 2.137 0 0 1 2.137 2.137z" class="cls-4"/>
                <path id="Path_234" d="M464.972 4632.278a2.136 2.136 0 1 1-2.136-2.137 2.137 2.137 0 0 1 2.136 2.137z" class="cls-4"/>
                <path id="Path_235" d="M419.078 4734.211a2.137 2.137 0 1 1-2.137-2.137 2.137 2.137 0 0 1 2.137 2.137z" class="cls-4"/>
                <circle id="Ellipse_33" cx="2.137" cy="2.137" r="2.137" class="cls-4" transform="translate(388.687 4748.302)"/>
                <path id="Path_236" d="M478.918 4751.706a2.137 2.137 0 1 1-2.136-2.136 2.135 2.135 0 0 1 2.136 2.136z" class="cls-4"/>
                <path id="Path_237" d="M520 4621.121a2.137 2.137 0 1 1-2.137-2.137 2.137 2.137 0 0 1 2.137 2.137z" class="cls-4"/>
                <path id="Path_238" d="M590.4 4637.448a3.681 3.681 0 1 1-3.681-3.681 3.681 3.681 0 0 1 3.681 3.681z" class="cls-4"/>
                <path id="Path_239" d="M454.626 4605.236a3.681 3.681 0 1 1-3.681-3.681 3.681 3.681 0 0 1 3.681 3.681z" class="cls-4"/>
                <path id="Path_240" d="M515.285 4632.785a3.681 3.681 0 1 1-3.681-3.681 3.681 3.681 0 0 1 3.681 3.681z" class="cls-4"/>
                <path id="Path_241" d="M592.3 4637.448a5.583 5.583 0 1 1-5.583-5.583 5.583 5.583 0 0 1 5.583 5.583z" class="cls-4"/>
                <path id="Path_242" d="M491.619 4689.786a3.681 3.681 0 1 1-3.681-3.681 3.681 3.681 0 0 1 3.681 3.681z" class="cls-4"/>
                <path id="Path_243" d="M602.623 4785.735a12.853 12.853 0 1 1-12.853-12.853 12.854 12.854 0 0 1 12.853 12.853z" class="cls-4"/>
                <path id="Path_244" d="M362.556 4716.461a3.681 3.681 0 1 1-3.681-3.681 3.681 3.681 0 0 1 3.681 3.681z" class="cls-4"/>
                <path id="Path_245" d="M467.024 4827.522a3.681 3.681 0 1 1-3.681-3.681 3.681 3.681 0 0 1 3.681 3.681z" class="cls-4"/>
                <path id="Path_246" d="M491.619 4689.786a3.681 3.681 0 1 1-3.681-3.681 3.681 3.681 0 0 1 3.681 3.681z" class="cls-4"/>
                <path id="Path_247" d="M334.664 4787.712a3.681 3.681 0 1 1-3.681-3.681 3.682 3.682 0 0 1 3.681 3.681z" class="cls-4"/>
                <path id="Path_248" d="M376.671 4847.131a3.681 3.681 0 1 1-3.681-3.681 3.681 3.681 0 0 1 3.681 3.681z" class="cls-4"/>
                <circle id="Ellipse_34" cx="9.889" cy="9.889" r="9.889" class="cls-4" transform="matrix(0.122, -0.993, 0.993, 0.122, 452.319, 4836.129)"/>
                <path id="Path_249" d="M334.664 4787.712a3.681 3.681 0 1 1-3.681-3.681 3.682 3.682 0 0 1 3.681 3.681z" class="cls-4"/>
                <path id="Path_250" d="M324.775 4920.58a3.681 3.681 0 1 1-3.681-3.681 3.681 3.681 0 0 1 3.681 3.681z" class="cls-4"/>
                <circle id="Ellipse_35" cx="5.038" cy="5.038" r="5.038" class="cls-4" transform="translate(367.951 4842.092)"/>
                <path id="Path_251" d="M219.5 4904.919a3.681 3.681 0 1 1-3.681-3.681 3.681 3.681 0 0 1 3.681 3.681z" class="cls-4"/>
                <path id="Path_252" d="M332.268 4920.58a11.174 11.174 0 1 1-11.174-11.175 11.174 11.174 0 0 1 11.174 11.175z" class="cls-4"/>
                <path id="Path_253" d="M245.494 4832.593a3.681 3.681 0 1 1-3.681-3.681 3.681 3.681 0 0 1 3.681 3.681z" class="cls-4"/>
                <path id="Path_254" d="M217.392 4823.7a3.681 3.681 0 1 1-3.681-3.681 3.681 3.681 0 0 1 3.681 3.681z" class="cls-4"/>
                <path id="Path_255" d="M219.5 4904.919a3.681 3.681 0 1 1-3.681-3.681 3.681 3.681 0 0 1 3.681 3.681z" class="cls-4"/>
                <path id="Path_256" d="M245.494 4832.593a3.681 3.681 0 1 1-3.681-3.681 3.681 3.681 0 0 1 3.681 3.681z" class="cls-4"/>
                <path id="Path_257" d="M334.664 4787.712a3.681 3.681 0 1 1-3.681-3.681 3.682 3.682 0 0 1 3.681 3.681z" class="cls-4"/>
                <path id="Path_258" d="M231.394 4762.224a3.681 3.681 0 1 1-3.681-3.681 3.681 3.681 0 0 1 3.681 3.681z" class="cls-4"/>
                <path id="Path_259" d="M245.494 4832.593a3.681 3.681 0 1 1-3.681-3.681 3.681 3.681 0 0 1 3.681 3.681z" class="cls-4"/>
                <path id="Path_260" d="M231.394 4762.224a3.681 3.681 0 1 1-3.681-3.681 3.681 3.681 0 0 1 3.681 3.681z" class="cls-4"/>
                <circle id="Ellipse_36" cx="3.681" cy="3.681" r="3.681" class="cls-4" transform="translate(267.883 4724.782)"/>
                <path id="Path_261" d="M254.779 4719.877a2.92 2.92 0 1 1-2.92-2.92 2.919 2.919 0 0 1 2.92 2.92z" class="cls-4"/>
                <path id="Path_262" d="M339.337 4787.712a8.355 8.355 0 1 1-8.354-8.354 8.354 8.354 0 0 1 8.354 8.354z" class="cls-4"/>
                <path id="Path_263" d="M362.556 4716.461a3.681 3.681 0 1 1-3.681-3.681 3.681 3.681 0 0 1 3.681 3.681z" class="cls-4"/>
                <path id="Path_264" d="M491.619 4689.786a3.681 3.681 0 1 1-3.681-3.681 3.681 3.681 0 0 1 3.681 3.681z" class="cls-4"/>
                <path id="Path_265" d="M516.644 4632.785a5.039 5.039 0 1 1-5.04-5.039 5.04 5.04 0 0 1 5.04 5.039z" class="cls-4"/>
                <path id="Path_266" d="M353.7 4631.9a3.681 3.681 0 1 1-3.681-3.681 3.681 3.681 0 0 1 3.681 3.681z" class="cls-4"/>
                <path id="Path_267" d="M362.556 4716.461a3.681 3.681 0 1 1-3.681-3.681 3.681 3.681 0 0 1 3.681 3.681z" class="cls-4"/>
                <circle id="Ellipse_37" cx="2.528" cy="2.528" r="2.528" class="cls-4" transform="translate(289.722 4669.38)"/>
                <path id="Path_268" d="M353.7 4631.9a3.681 3.681 0 1 1-3.681-3.681 3.681 3.681 0 0 1 3.681 3.681z" class="cls-4"/>
                <path id="Path_269" d="M362.556 4716.461a3.681 3.681 0 1 1-3.681-3.681 3.681 3.681 0 0 1 3.681 3.681z" class="cls-4"/>
                <path id="Path_270" d="M410.613 4611.19a3.68 3.68 0 1 1-3.681-3.681 3.681 3.681 0 0 1 3.681 3.681z" class="cls-4"/>
                <path id="Path_271" d="M494.636 4689.786a6.7 6.7 0 1 1-6.7-6.7 6.7 6.7 0 0 1 6.7 6.7z" class="cls-4"/>
                <path id="Path_272" d="M454.626 4605.236a3.681 3.681 0 1 1-3.681-3.681 3.681 3.681 0 0 1 3.681 3.681z" class="cls-4"/>
                <path id="Path_273" d="M355.307 4631.9a5.286 5.286 0 1 1-5.286-5.286 5.286 5.286 0 0 1 5.286 5.286z" class="cls-4"/>
            </g>
        </g>
    </g>
</svg>
