<svg xmlns="http://www.w3.org/2000/svg" width="1784.5" height="1089.604" viewBox="0 0 1784.5 1089.604">
    <defs>
        <clipPath id="clip-path">
            <path id="Rectangle_53" fill="none" d="M0 0H1784.5V1089.604H0z" transform="translate(-0.5 1070.198)"/>
        </clipPath>
        <style>
            .cls-4{fill:none;stroke:#964bac;stroke-miterlimit:10}
        </style>
    </defs>
    <g id="Group_41" opacity="0.2" transform="translate(0.5 -1070.198)">
        <g id="Group_40" clip-path="url(#clip-path)">
            <g id="Group_39">
                <path id="Path_54" d="M1451.162 1582.121l117.967 3.813.233-14.562.418-30.343a7.382 7.382 0 0 1 4.93-4.659 7.459 7.459 0 0 1 6.455.847c10.633 6.778 23.818 8.472 31.289-3.76 5.995-9.9 2.394-23.722-7.709-29.387-8.356-4.767-15.786-1.113-23.368 3.123a7.826 7.826 0 0 1-11.019-4.236l.55-43.528-117.93-2.435-.174 11.7-1.642 113.424z" class="cls-4"/>
                <path id="Path_55" d="M1684.168 1325.2a7.854 7.854 0 0 0 10.018 6.566c8.414-2.542 16.574-4.555 23.829 1.851a21.95 21.95 0 0 1 1.35 30.82c-9.992 10.537-22.717 6.036-31.75-3.02a7.848 7.848 0 0 0-12.142 1.431l-10 43.263 273.212 63.119 28.478-123.273-273.213-63.119-9.785 42.362z" class="cls-4"/>
                <path id="Path_56" d="M1823.262 1658.213q50.708 1.033 77.528 27.747 26.623 26.688 25.93 63.7c-.5 24.835-10.05 45.169-28.493 61.319q-27.864 23.986-78.565 22.928l-2.706 131.852q65.989 1.349 115.669-26.107a193.863 193.863 0 0 0 77.375-76.461q27.578-49.007 28.848-111.2c.847-41.3-7.233-79.057-24.252-112.946-17.013-34.049-41.822-61-74.419-81.123q-49.095-30.183-114.213-31.56l-2.706 131.851z" class="cls-4"/>
                <path id="Path_57" d="M1436.68 1323.555l118.75-43.579-193.058-526.452-118.751 43.576 193.058 526.45z" class="cls-4"/>
                <path id="Path_58" d="M1526.4 1783.6q-50.676-1.031-78.507 23.776-27.8 24.78-28.6 61.9-.771 37.967 25.618 63.437 26.354 25.575 77.882 26.58 50.778 1.035 78.56-22.98c18.522-16.045 28.006-36.483 28.509-61.161q.762-37.17-25.946-63.86-26.745-26.607-77.517-27.694z" class="cls-4"/>
                <path id="Path_59" d="M1413.746 1678.176q-50.143 27.8-77.7 77.258-27.592 49.484-28.864 111.569-1.271 62.193 24.268 112.629 25.425 50.678 74.461 80.382 49.064 29.867 114.181 31.083 66 1.35 115.759-25.946 49.826-27.481 77.342-76.517 27.474-49.007 28.785-111.146 1.271-62.112-24.189-113.16-25.432-50.754-74.451-81.016-49.158-30.183-114.239-31.506-65.075-1.35-115.356 26.37z" class="cls-4"/>
                <path id="Path_60" d="M910.16 2390.595l271.645-69.58-31.379-122.531-271.646 69.526 11.02 43.051a7.856 7.856 0 0 0 12.168 1.112c8.816-9.214 21.43-14.085 31.671-3.761 8.255 8.368 8.011 22.771-.619 30.82-7.1 6.619-15.3 4.765-23.782 2.435a7.836 7.836 0 0 0-9.854 6.831l10.776 42.1z" class="cls-4"/>
                <path id="Path_61" d="M457.852 1277.487q56.639 32.326 114.248 31.506c38.3-.583 73.421-10.961 105.483-31.453 31.994-20.334 58.29-48.611 78.756-84.513q30.8-54.009 32.28-110.245a193.617 193.617 0 0 0-27.175-105.323q-28.6-49.006-85.91-81.758l-65.318 114.589q44.054 25.1 55.67 59.994c7.562 23.3 5.317 45.646-6.974 67.2q-18.339 32.169-54.956 41.409-36.735 9.216-80.785-15.938l-65.319 114.536z" class="cls-4"/>
                <path id="Path_62" d="M1036.387 2144.049q65.132-2.937 113.435-34.312 48.165-31.295 72.481-82.817c16.208-34.314 23.394-72.228 21.572-113.479q-2.741-62.109-31.469-110.509a194.129 194.129 0 0 0-79.169-74.663q-50.3-26.133-116.246-23.3l5.819 131.743q50.66-2.221 79.085 21.076c18.819 15.674 28.843 35.8 29.939 60.579q1.627 37.011-24.422 64.336-26.187 27.322-76.844 29.6l5.819 131.744z" class="cls-4"/>
                <path id="Path_63" d="M1186.189 1649.74l38.962-120.36L691.7 1356.65l-38.962 120.36 533.456 172.729z" class="cls-4"/>
                <path id="Path_64" d="M807.665 1864.408c17.4-18.268 25.524-39.714 24.427-64.495-1.09-24.622-11.051-44.85-29.949-60.418q-28.348-23.433-79.084-21.128-51.447 2.225-77.231 28.435c-17.167 17.368-25.224 38.761-24.109 63.967q1.635 37.092 30.05 61.213 28.38 24.223 79.047 21.974 50.739-2.3 76.849-29.548z" class="cls-4"/>
                <path id="Path_65" d="M736.636 2025.649q65.13-2.94 113.46-34.208 48.23-31.374 72.518-82.764 24.21-51.63 21.5-113.688c-1.827-41.3-12.322-78.211-31.406-110.459s-45.486-57.136-79.132-74.662q-50.46-26.211-116.336-23.194-65.028 2.861-113.412 33.783-48.238 30.978-72.543 82.077-24.34 51.072-21.6 113.212 2.742 62.034 31.493 110.828 28.644 48.771 79.5 75.4 50.887 26.531 115.948 23.671z" class="cls-4"/>
                <path id="Path_66" d="M1147.264 1229.458c17.4-18.267 25.518-39.714 24.422-64.495-1.086-24.623-11.046-44.85-29.945-60.472q-28.348-23.351-79.084-21.128-51.445 2.3-77.231 28.436-25.751 26.133-24.109 64.019 1.637 37.094 30.05 61.212 28.38 24.227 79.047 21.924 50.748-2.225 76.85-29.5z" class="cls-4"/>
                <path id="Path_67" d="M1076.234 1390.7q65.132-2.937 113.46-34.207 48.23-31.374 72.519-82.816 24.209-51.549 21.5-113.637c-1.827-41.355-12.322-78.262-31.406-110.457q-28.626-48.374-79.132-74.665-50.461-26.21-116.342-23.244c-43.352 1.958-81.181 13.132-113.407 33.783q-48.237 30.978-72.545 82.129-24.338 51.074-21.593 113.212 2.739 62.032 31.49 110.829 28.65 48.768 79.5 75.4 50.883 26.449 115.95 23.669z" class="cls-4"/>
                <path id="Path_68" d="M-127.175 1621.782l117.969 3.813.23-14.509.419-30.4a7.388 7.388 0 0 1 4.933-4.66 7.645 7.645 0 0 1 6.456.848c10.63 6.777 23.813 8.472 31.288-3.761 5.994-9.9 2.392-23.722-7.712-29.387-8.352-4.767-15.785-1.06-23.369 3.123a7.483 7.483 0 0 1-6.076.53 7.561 7.561 0 0 1-4.943-4.766l.553-43.527-117.933-2.435-.17 11.7-1.645 113.425z" class="cls-4"/>
                <path id="Path_69" d="M105.833 1364.858a7.853 7.853 0 0 0 10.019 6.566c8.414-2.542 16.574-4.554 23.829 1.9a21.885 21.885 0 0 1 1.347 30.767c-9.991 10.591-22.714 6.036-31.751-3.018a7.874 7.874 0 0 0-12.136 1.429l-10 43.263 273.211 63.119 28.475-123.273-273.21-63.111-9.784 42.362z" class="cls-4"/>
                <path id="Path_70" d="M244.931 1697.874q50.7 1.033 77.525 27.747 26.625 26.688 25.931 63.755c-.507 24.78-10.05 45.115-28.495 61.266q-27.867 23.987-78.565 22.927l-2.705 131.852q65.991 1.35 115.665-26.1a193.835 193.835 0 0 0 77.383-76.464q27.571-49.007 28.847-111.2c.848-41.3-7.234-79.057-24.25-112.946q-25.522-51.074-74.42-81.07-49.095-30.262-114.214-31.612l-2.7 131.85z" class="cls-4"/>
                <path id="Path_71" d="M-141.656 1363.215l118.756-43.578-193.058-526.45-118.749 43.58 193.056 526.449z" class="cls-4"/>
                <path id="Path_72" d="M-51.935 1823.265q-50.675-1.032-78.508 23.775c-18.533 16.522-28.087 37.225-28.6 61.9q-.775 37.967 25.618 63.437 26.357 25.573 77.882 26.582 50.78 1.111 78.562-22.982c18.52-16.044 28-36.483 28.508-61.108.51-24.833-8.118-46.067-25.943-63.913q-26.749-26.607-77.523-27.693z" class="cls-4"/>
                <path id="Path_73" d="M-164.59 1717.837q-50.139 27.8-77.7 77.258-27.591 49.484-28.863 111.569-1.275 62.193 24.266 112.63 25.434 50.676 74.464 80.382 49.065 29.863 114.178 31.082 66 1.35 115.758-25.946 49.829-27.482 77.342-76.515 27.474-49.009 28.785-111.148 1.275-62.112-24.185-113.158-25.431-50.754-74.452-81.018-49.158-30.1-114.24-31.506-65.079-1.35-115.357 26.37z" class="cls-4"/>
            </g>
        </g>
    </g>
</svg>
