<svg xmlns="http://www.w3.org/2000/svg" width="612.564" height="889.735" viewBox="0 0 612.564 889.735">
    <defs>
        <style>
            .cls-2{fill:#4668d5}.cls-4{fill:#0c0e17}.cls-5{fill:#eef1ff}
        </style>
    </defs>
    <g id="Group_98" transform="translate(-1132.868 -2758.923)">
        <rect id="Rectangle_55" width="472" height="775" fill="#fff" rx="30.903" transform="translate(1181 2807.5)"/>
        <path id="Path_84" d="M1634.785 3644.576l.157 4.082 41.1-1.81-.55-15.18a2.706 2.706 0 0 1 3.808-1.57c2.677 1.4 5.3 2.622 8.171.905a7.554 7.554 0 0 0 2.447-10.323c-2.707-4.211-7.291-3.509-10.94-1.053a2.669 2.669 0 0 1-2.244.351 2.608 2.608 0 0 1-1.758-1.589l-.4-10.581-.2-5.06-41.1 2.29 1.507 39.538z" class="cls-2"/>
        <path id="Path_85" d="M1132.868 2865.376q15.792 8.993 31.856 8.771a55.054 55.054 0 0 0 29.411-8.756 66.324 66.324 0 0 0 21.961-23.564 64.89 64.89 0 0 0 9-30.741 54.069 54.069 0 0 0-7.577-29.381q-7.975-13.665-23.953-22.782l-18.214 31.936q12.285 7 15.522 16.728a22.368 22.368 0 0 1-1.943 18.752 23.538 23.538 0 0 1-15.324 11.531q-10.242 2.568-22.525-4.444l-18.213 31.95z" class="cls-2"/>
        <path id="Path_86" fill="none" stroke="#4668d5" stroke-miterlimit="10" stroke-width="1.5px" d="M1744.6 3029.473a65.21 65.21 0 0 0-8.757-30.8 54.278 54.278 0 0 0-22.063-20.8q-14.07-7.31-32.439-6.482-18.132.8-31.623 9.42a54.392 54.392 0 0 0-20.226 22.9 69.688 69.688 0 0 0 2.759 62.47 54.5 54.5 0 0 0 22.168 21.01q14.187 7.4 32.329 6.6 18.162-.8 31.638-9.538a55.1 55.1 0 0 0 20.218-23.077 66.587 66.587 0 0 0 5.996-31.703zm-38.047 19.372q-7.28 7.6-21.427 8.224-14.118.619-22.04-6.113a23.984 23.984 0 0 1-1.657-34.918q7.179-7.31 21.535-7.929 14.147-.621 22.051 5.891a22.232 22.232 0 0 1 8.349 16.861 23.594 23.594 0 0 1-6.807 17.984z"/>
        <g id="Group_97">
            <g id="Group_42">
                <path id="Path_77" d="M1368.2 3094.2l-15.017-7.781-14.923 7.96 2.76-16.687-12.182-11.733 16.723-2.532 7.395-15.211 7.576 15.122 16.752 2.332-12.041 11.878z" class="cls-2"/>
                <path id="Path_78" d="M1430.012 3094.2l-15.017-7.781-14.923 7.96 2.76-16.687-12.182-11.733 16.723-2.532 7.395-15.211 7.576 15.122 16.752 2.332-12.041 11.878z" class="cls-2"/>
                <path id="Path_79" d="M1491.819 3094.2l-15.017-7.781-14.923 7.96 2.76-16.687-12.182-11.733 16.723-2.532 7.395-15.211 7.576 15.122 16.752 2.332-12.041 11.878z" class="cls-2"/>
                <path id="Path_80" d="M1553.627 3094.2l-15.017-7.781-14.923 7.96 2.76-16.687-12.182-11.733 16.723-2.532 7.395-15.211 7.576 15.122 16.752 2.332-12.041 11.878z" class="cls-2"/>
                <path id="Path_81" d="M1306.4 3094.2l-15.017-7.781-14.923 7.96 2.76-16.687-12.182-11.733 16.723-2.532 7.395-15.211 7.576 15.122 16.752 2.332-12.041 11.878z" class="cls-2"/>
            </g>
            <g id="Group_44">
                <g id="Group_43">
                    <path id="Path_82" d="M1414.2 3013.744h-41.892c-5.122 0-8.187-3.152-8.034-8.229a50.03 50.03 0 0 1 36.76-47.057c27.848-7.862 57.146 10.571 62.182 39.1a66.651 66.651 0 0 1 .843 7.753c.3 5.182-2.808 8.432-7.967 8.434q-20.945.006-41.892-.001z" class="cls-4"/>
                    <path id="Path_83" d="M1414.171 2885.782c15.793.012 28.77 12.791 28.589 28.53a28.6 28.6 0 1 1-28.589-28.53z" class="cls-4"/>
                </g>
            </g>
            <path id="Rectangle_57" d="M0 0H340.884V48.82H0z" class="cls-5" transform="translate(1247.558 3160)"/>
            <path id="Rectangle_58" d="M0 0H283.499V36.829H0z" class="cls-5" transform="translate(1247.558 3238.797)"/>
            <path id="Rectangle_59" d="M0 0H132.756V51.39H0z" class="cls-5" transform="translate(1247.558 3418.661)"/>
            <path id="Rectangle_61" d="M0 0H201.276V51.389H0z" class="cls-5" transform="translate(1249.271 3484.611)"/>
            <path id="Rectangle_63" d="M0 0H307.481V18.843H0z" class="cls-5" transform="translate(1247.558 3319.308)"/>
            <path id="Rectangle_64" d="M0 0H307.481V18.843H0z" class="cls-5" transform="translate(1247.558 3357.85)"/>
        </g>
    </g>
</svg>
