<svg xmlns="http://www.w3.org/2000/svg" width="814.474" height="759.742" viewBox="0 0 814.474 759.742">
    <defs>
        <style>
            .cls-2,.cls-4,.cls-6{fill:none;stroke:#0c0e17}.cls-2{stroke-miterlimit:10}.cls-3{fill:#4668d5}.cls-4,.cls-6{stroke-linecap:round;stroke-linejoin:round;stroke-width:1.5px}.cls-6{fill-rule:evenodd}
        </style>
    </defs>
    <g id="Group_46" transform="translate(-971.158 -3282.175)">
        <g id="Group_15" opacity="0.15">
            <path id="Path_25" d="M1648.4 3879.9q26.093-27.4 24.421-64.494c-1.085-24.624-11.046-44.851-29.944-60.473q-28.349-23.35-79.085-21.128-51.445 2.3-77.23 28.436-25.752 26.133-24.109 64.019 1.635 37.094 30.05 61.211 28.38 24.228 79.047 21.925 50.747-2.224 76.85-29.5z" class="cls-2"/>
            <path id="Path_26" d="M1577.371 4041.139q65.132-2.937 113.461-34.207 48.229-31.374 72.518-82.816 24.21-51.549 21.5-113.637c-1.827-41.355-12.322-78.262-31.406-110.458q-28.626-48.372-79.132-74.664-50.46-26.209-116.341-23.244c-43.352 1.958-81.181 13.132-113.408 33.783q-48.237 30.978-72.544 82.129-24.337 51.074-21.594 113.212 2.741 62.032 31.491 110.829 28.648 48.768 79.5 75.4 50.882 26.45 115.949 23.669z" class="cls-2"/>
            <path id="Path_27" d="M1071.966 3448.948q33.845-38.48 71.961-41.814 37.987-3.153 66.154 21.531c18.832 16.532 28.328 37.155 28.765 61.9q.39 37.2-33.454 75.674l100.121 88.006q44.031-50.142 55.215-106.35c7.555-37.617 4.639-74.092-8.707-109.668q-19.848-53.16-67.118-94.737-47.041-41.315-103.065-54.833-56.062-13.508-111.162 4.634-55.314 18.267-98.813 67.706l100.1 87.956z" class="cls-2"/>
            <path id="Path_28" d="M1497.017 3468.807l137.888-39-5.072-16.871-10.7-35.32a8.973 8.973 0 0 1 3.993-7.207 9.28 9.28 0 0 1 7.781-1.394c14.792 3.929 30.668 1.039 34.816-15.864 3.29-13.661-5.962-28.326-19.737-31.162-11.416-2.442-18.653 4.582-25.887 12.212a9.5 9.5 0 0 1-14.308-.847l-15.376-50.562-137.34 40.577 4.108 13.6 39.834 131.835z" class="cls-2"/>
        </g>
        <g id="Group_20">
            <path id="Path_39" d="M1312.9 3388.323c-.1 4.339-4.445 6.894-8.61 4.662-6.957-3.729-13.768-7.74-20.542-11.8a5.724 5.724 0 1 1 5.867-9.831c6.877 3.875 13.652 7.933 20.475 11.9a5.361 5.361 0 0 1 2.81 5.069z" class="cls-3"/>
            <path id="Path_40" d="M1306.506 3420.808c1.959 3.874-.673 8.176-5.4 8.17-7.893-.011-15.79-.338-23.677-.723a5.724 5.724 0 1 1 .542-11.436c7.893.178 15.78.564 23.67.851a5.362 5.362 0 0 1 4.865 3.138z" class="cls-3"/>
            <path id="Path_41" d="M1567.318 3388.323c.1 4.339 4.445 6.894 8.61 4.662 6.957-3.729 13.768-7.74 20.542-11.8a5.724 5.724 0 1 0-5.867-9.831c-6.877 3.875-13.652 7.933-20.475 11.9a5.36 5.36 0 0 0-2.81 5.069z" class="cls-3"/>
            <path id="Path_42" d="M1573.713 3420.808c-1.959 3.874.673 8.176 5.4 8.17 7.893-.011 15.79-.338 23.677-.723a5.724 5.724 0 1 0-.543-11.436c-7.892.178-15.779.564-23.669.851a5.362 5.362 0 0 0-4.865 3.138z" class="cls-3"/>
            <g id="Group_18">
                <path id="Path_43" d="M1518.447 3646.021c11.128-2.959 27.146-6.991 42-9.9 30.556-5.983 38.249-11.728 55.587-18.661s72.76-24.706 81.7-3.553" class="cls-4"/>
                <path id="Path_44" d="M1478.634 3734.594c23.837-.437 57.213-29.475 93.621-45.078s86.685-39.875 107.49-43.344 43.344-13.869 43.344-13.869-5.636-18.757-33.376-19.07-69.347 10.4-86.9 19.07c-2.845 1.406-41.189 10.07-74.823 17.518" class="cls-4"/>
                <path id="Path_45" d="M1186.074 3839.4s52.662-101.925 67.181-133.543c18.2-39.641 32.51-69.787 75.412-73.667 37.119-3.357 63.656 11.89 94.487 12.246 37.708.432 58.947-5.635 86.687-.434s25.6 14.732 25.681 22.143c.135 12.368-12.678 18.717-35.217 18.275-49.736-.975-87.554 20.695-87.554 20.695l-27.22 20.831" class="cls-4"/>
                <path id="Path_46" d="M1305.465 3870.306s15.4-114.044 28.4-124.446 78.017-3.9 94.921-3.9 49.845-7.365 49.845-7.365" class="cls-4"/>
                <path id="Path_47" d="M1532.308 3653.295c-8.71-6.291-32-.187-32-.187l1.8 25.469s21.34 3.533 30.2-3.511" class="cls-4"/>
                <path id="Path_48" d="M1720.388 3630.326c-2.96-1.555-8.495-3.043-17.288-.3l-14.309 4.473 2.159 9.238" class="cls-4"/>
            </g>
            <g id="Group_19">
                <path id="Path_49" fill="#ebedff" fill-rule="evenodd" d="M1330.638 3449.121l44.627 30.693 129.172.847 47.828-31.069-32.293-36.436-81.344-13.84-67.881 13.84z"/>
                <path id="Path_50" d="M1504.436 3480.66l47.828-31.069-32.293-36.436-28.621 27.586z" class="cls-6"/>
                <path id="Path_51" d="M1375.264 3479.813l129.172.847-13.087-39.919-94.431-.942z" class="cls-6"/>
                <path id="Path_52" d="M1330.638 3449.121l44.627 30.693 21.654-40.013-26.173-26.644z" class="cls-6"/>
                <path id="Path_53" d="M1330.638 3449.121l114.862 135.95-70.235-105.258z" class="cls-6"/>
                <path id="Path_54" d="M1504.436 3480.66l-129.172-.847 70.235 105.258z" class="cls-6"/>
                <path id="Path_55" d="M1552.264 3449.591l-47.828 31.069-58.936 104.411z" class="cls-6"/>
            </g>
        </g>
    </g>
</svg>
