<svg xmlns="http://www.w3.org/2000/svg" width="732.787" height="635.177" viewBox="0 0 732.787 635.177">
    <defs>
        <style>
            .cls-2,.cls-4{fill:none;stroke:#0c0e17;stroke-miterlimit:10}.cls-3{fill:#964bac}.cls-4{stroke-width:1.5px}.cls-5{fill:#4668d5}
        </style>
    </defs>
    <g id="Group_45" transform="translate(-111.428 -2246.587)">
        <g id="Group_12" opacity="0.15">
            <path id="Path_8" d="M255.963 2372.223l117.969 3.813.23-14.509.419-30.4a7.387 7.387 0 0 1 4.933-4.66 7.646 7.646 0 0 1 6.456.848c10.629 6.777 23.813 8.472 31.288-3.761 5.993-9.9 2.391-23.722-7.713-29.387-8.351-4.767-15.785-1.06-23.368 3.123a7.483 7.483 0 0 1-6.076.53 7.565 7.565 0 0 1-4.944-4.766l.553-43.527-117.932-2.427-.171 11.7-1.644 113.425z" class="cls-2"/>
            <path id="Path_9" d="M628.068 2448.315q50.7 1.033 77.526 27.747 26.625 26.688 25.931 63.755c-.507 24.78-10.051 45.115-28.5 61.266q-27.865 23.986-78.565 22.927l-2.7 131.852q65.989 1.35 115.665-26.1a193.84 193.84 0 0 0 77.383-76.464q27.572-49.006 28.847-111.2c.848-41.3-7.234-79.057-24.25-112.946q-25.524-51.074-74.42-81.07-49.1-30.262-114.214-31.612l-2.7 131.85z" class="cls-2"/>
            <path id="Path_10" d="M331.2 2573.705q-50.674-1.031-78.508 23.776c-18.533 16.522-28.087 37.226-28.6 61.9q-.777 37.967 25.617 63.437 26.358 25.573 77.882 26.582 50.779 1.111 78.563-22.982c18.52-16.045 28-36.483 28.508-61.108.509-24.833-8.119-46.067-25.944-63.913q-26.748-26.607-77.522-27.694z" class="cls-2"/>
            <path id="Path_11" d="M218.547 2468.278q-50.139 27.8-77.7 77.258-27.589 49.484-28.862 111.569-1.276 62.193 24.265 112.63 25.434 50.676 74.464 80.382 49.069 29.863 114.186 31.083 66 1.35 115.758-25.946 49.828-27.482 77.341-76.515 27.474-49.01 28.785-111.148 1.277-62.112-24.185-113.159-25.431-50.752-74.451-81.017-49.158-30.1-114.24-31.506-65.079-1.35-115.358 26.37z" class="cls-2"/>
        </g>
        <g id="Group_14">
            <path id="Path_12" d="M308.934 2613.277c2.1-3.146 4.967-4.282 8.778-4.147 6.88.243 13.774.062 20.663.071 5.57.007 8.524 2.119 8.592 6.113.067 4.011-2.921 6.278-8.332 6.286-7.026.011-14.06-.186-21.076.078-3.844.145-6.686-.945-8.625-4.266z" class="cls-3"/>
            <path id="Path_13" d="M437.071 2459.31c-.5 3.235-1.609 5.477-4.477 6.4a5.413 5.413 0 0 1-6.578-2.134c-4.967-7.886-9.918-15.812-13.867-24.267-1.4-3 .044-5.633 2.931-7.211 3.01-1.644 6.339-.623 8.416 2.842 4.235 7.062 8.3 14.226 12.383 21.377a19.837 19.837 0 0 1 1.192 2.993z" class="cls-3"/>
            <path id="Path_14" d="M610.637 2466.029c-4.5-.07-7.784-4.714-5.77-8.481 4.269-7.979 8.838-15.811 13.6-23.505a5.638 5.638 0 0 1 8.331-1.6c2.844 2.046 3.638 4.949 1.974 7.969-4.171 7.571-8.541 15.035-12.938 22.478a6.263 6.263 0 0 1-5.197 3.139z" class="cls-3"/>
            <path id="Path_15" d="M676.813 2531.527c-3.2.039-5.312-1.106-6.2-3.774-.9-2.694-.545-5.426 2.019-6.977 7.767-4.7 15.58-9.34 23.557-13.667 2.825-1.531 5.775-.453 7.567 2.323 1.937 3 1.372 6.339-1.393 8.085-7.669 4.84-15.658 9.176-23.555 13.649a5.224 5.224 0 0 1-1.995.361z" class="cls-3"/>
            <path id="Path_16" d="M713 2621.593c-4.133 0-8.268.075-12.4-.024a6.191 6.191 0 0 1-6.322-6.2 6.065 6.065 0 0 1 6.056-6.1q13.014-.238 26.035.011a6.06 6.06 0 0 1 5.915 6.236c-.063 3.41-2.717 5.979-6.474 6.057-4.271.089-8.543.021-12.81.02z" class="cls-3"/>
            <path id="Path_17" d="M370.988 2525.747c-.105 4.687-4.8 7.446-9.3 5.035-7.514-4.028-14.87-8.359-22.188-12.74a6.183 6.183 0 1 1 6.337-10.618c7.429 4.186 14.746 8.568 22.116 12.858a5.791 5.791 0 0 1 3.035 5.465z" class="cls-3"/>
            <path id="Path_18" d="M342.629 2714.187c-3.334.036-5.048-1.8-5.962-4.466-.949-2.763.386-4.981 2.524-6.414 3.531-2.366 7.285-4.4 10.968-6.539 3.922-2.274 7.824-4.589 11.822-6.721 3.348-1.786 6.158-.754 8.206 2.275a5.845 5.845 0 0 1-2.112 8.264c-7.285 4.41-14.732 8.554-22.109 12.813a6.148 6.148 0 0 1-3.337.788z" class="cls-3"/>
            <path id="Path_19" d="M698.216 2714.216a7.051 7.051 0 0 1-3.815-1.264c-6.78-3.92-13.592-7.787-20.311-11.81-3.8-2.276-4.9-5.526-3.222-8.571 1.909-3.464 5.2-4.356 9.22-2.111q10.8 6.026 21.392 12.413c2.445 1.483 4.044 3.691 2.943 6.951-.95 2.813-2.707 4.367-6.207 4.392z" class="cls-3"/>
            <path id="Path_20" d="M514.691 2422.252c0-4.116-.085-8.234.023-12.347.1-3.827 2.256-5.891 5.877-5.905 3.6-.014 5.868 2.042 5.923 5.908.124 8.642.1 17.288.007 25.931a5.906 5.906 0 1 1-11.8 0c-.114-4.529-.029-9.059-.03-13.587z" class="cls-3"/>
            <g id="Group_13">
                <path id="Path_21" d="M648.737 2590c-12.936.011-25.872 0-38.807.056-2.254.01-3.757-.087-4.155-3.077a20.824 20.824 0 0 0-20.55-18.357 21.458 21.458 0 0 0-21.416 18.038c-.409 2.595-1.05 3.457-3.7 3.429-13.209-.143-26.421-.1-39.631-.124-1.369-1.655-1.032-3.654-1.039-5.546-.042-10.328-.107-20.658.032-30.984.044-3.262-.995-4.826-4.3-5.792-10.644-3.116-17.276-11.9-17.227-22.113.048-10.026 6.678-18.559 17.22-21.615 3.281-.951 4.344-2.632 4.3-5.891-.134-9.913-.059-19.829-.04-29.744a17.661 17.661 0 0 1 .4-5.334 2.453 2.453 0 0 1 .9-1.136c55.258-.874 104.873 36 121.927 88.077 4.249 12.997 6.777 26.328 6.086 40.113z" class="cls-4"/>
                <path id="Path_22" d="M524.539 2633.381c-3.634-.543-4.006-1.893-3.975-4.923.129-12.789.041-25.58.032-38.371l-39.578-.089c-1.65 0-3.021-.193-3.462 2.3-2.077 11.735-10.348 19.3-21.206 19.149-10.949-.147-20.281-8.414-21.028-18.825-.132-1.844-.984-2.665-2.888-2.638-7.828.112-15.657.147-23.485.21l-16.654-.092c.02 1.906.007 3.812.065 5.717.7 22.924 7.572 43.947 19.857 63.2a125.337 125.337 0 0 0 51.536 46.155c9.534 4.646 14.279 11.963 13.929 22.642-.176 5.357.006 10.726.026 16.09 1.138 1.246 2.68 1.188 4.166 1.262 2.858.142 5.715-.168 8.576-.071a6.68 6.68 0 0 0 3.524-.7 3.42 3.42 0 0 0 .519-.576l26.122.016c0-21.455.047-42.91-.043-64.365-.012-2.768.424-3.911 3.642-4.361 9.933-1.388 17.731-10.783 17.864-20.734.129-9.809-7.604-19.512-17.539-20.996z" class="cls-4"/>
                <path id="Path_23" d="M648.737 2590c.491 28.985-8.7 54.774-25.974 77.792a123.86 123.86 0 0 1-45.753 37.579c-9.135 4.417-13.727 11.39-13.475 21.6.139 5.636-.021 11.279-.046 16.919a4.706 4.706 0 0 1-3.784 1.3c-11.966.1-23.932.143-35.9-.021a6.246 6.246 0 0 1-2.785-.66c-1.841-1.358-1.591-3.405-1.6-5.284-.053-19.692.007-39.384-.062-59.076-.014-3.8 1.4-5.61 5.228-6.488 9.6-2.2 16.124-10.333 16.146-19.434.022-9.08-6.532-17.15-16.1-19.508-2.924-.721-5.214-1.541-5.217-5.16-.01-12.255-.111-24.509.061-36.764a6.016 6.016 0 0 1 .412-2.015 2.647 2.647 0 0 1 .924-1.13c1.8-.917 3.756-.719 5.669-.724 10.184-.026 20.369-.1 30.55.041 3.375.049 5.058-.921 6.116-4.43 4.075-13.512 16.515-19.964 29.44-15.591 7.568 2.561 12.037 8.122 13.911 15.633.843 3.378 2.472 4.408 5.72 4.374 10.32-.107 20.642-.06 30.963-.024 1.91.01 3.899-.276 5.556 1.071z" class="cls-4"/>
                <path id="Path_24" d="M516 2504.834c1.934-.48 4.77.193 4.7-3.664-.247-12.806-.164-25.618-.208-38.428l.231-.932c-7.025-1.092-13.988.093-20.807 1.268-33.1 5.7-60.371 21.569-80.972 48.194-17.724 22.906-26.867 48.931-26.614 78.062a.788.788 0 0 0-.033.767c1.315 1.239 2.979 1.293 4.627 1.3 3.836.014 7.674.138 11.513-.08 7.161.028 14.316 0 21.471-.009 2.565 0 3.9.928 4.621 3.575 2.913 10.68 11.72 17.791 21.631 17.786 10.155 0 18.95-6.727 22.05-17.328.919-3.145 2.448-4.106 5.527-4.072 10.457.117 20.917.063 31.375.031 1.9-.006 3.9.259 5.487-1.216l-.12-.123c.049-13.223.061-26.446.181-39.669.02-2.187-.548-2.97-2.916-3.308a21.542 21.542 0 0 1-18.587-22.22c.258-9.468 7.17-17.532 16.843-19.934z" class="cls-4"/>
                <rect id="Rectangle_10" width="100.352" height="25.301" class="cls-5" rx="11.34" transform="translate(470.433 2737.036)"/>
                <rect id="Rectangle_11" width="100.352" height="25.301" class="cls-5" rx="11.34" transform="translate(470.433 2776.199)"/>
            </g>
        </g>
    </g>
</svg>
