<svg xmlns="http://www.w3.org/2000/svg" width="621.016" height="868.58" viewBox="0 0 621.016 868.58">
    <defs>
        <style>
            .cls-2{fill:#4668d5}.cls-3,.cls-5,.cls-6{fill:none;stroke-width:1.5px}.cls-3{stroke:#4668d5}.cls-3,.cls-5{stroke-miterlimit:10}.cls-4{fill:#eef1ff}.cls-5,.cls-6{stroke:#0c0e17}.cls-6{stroke-linecap:round;stroke-linejoin:round}
        </style>
    </defs>
    <g id="Group_104" transform="translate(-1106.648 -444.556)">
        <rect id="Rectangle_21" width="472" height="775" fill="#fff" rx="30.903" transform="translate(1179 507.5)"/>
        <g id="Group_103">
            <path id="Path_31" d="M3303.86 1366.472l2.584 3.164 31.713-26.2-9.584-11.785a2.706 2.706 0 0 1 2.094-3.547c2.982-.492 5.808-1.1 7.067-4.2a7.555 7.555 0 0 0-4.265-9.714c-4.7-1.73-7.934 1.591-9.367 5.75a2.668 2.668 0 0 1-1.579 1.632 2.6 2.6 0 0 1-2.36-.209l-6.692-8.207-3.207-3.918-31.425 26.586 25.021 30.651z" class="cls-2" transform="translate(-2122 -56.5)"/>
            <path id="Path_35" d="M3756.663 1166.824q15.793 8.991 31.856 8.77a55.034 55.034 0 0 0 29.411-8.756 66.3 66.3 0 0 0 21.961-23.564 64.891 64.891 0 0 0 9-30.74 54.063 54.063 0 0 0-7.578-29.382q-7.974-13.665-23.953-22.782l-18.213 31.936q12.285 7 15.522 16.729a22.368 22.368 0 0 1-1.943 18.751 23.537 23.537 0 0 1-15.324 11.531q-10.242 2.57-22.526-4.444l-18.213 31.951z" class="cls-3" transform="translate(-2122 -56.5)"/>
            <path id="Path_36" d="M3350.6 559.973a65.2 65.2 0 0 0-8.757-30.8 54.278 54.278 0 0 0-22.063-20.8q-14.07-7.31-32.439-6.482-18.132.8-31.623 9.42a54.391 54.391 0 0 0-20.226 22.9 69.689 69.689 0 0 0 2.759 62.47 54.5 54.5 0 0 0 22.168 21.01q14.187 7.4 32.329 6.6 18.162-.8 31.638-9.538a55.1 55.1 0 0 0 20.218-23.078 66.582 66.582 0 0 0 5.996-31.702zm-38.047 19.372q-7.279 7.6-21.427 8.224-14.118.62-22.04-6.113a23.984 23.984 0 0 1-1.657-34.918q7.177-7.31 21.535-7.929 14.146-.621 22.051 5.891a22.231 22.231 0 0 1 8.349 16.861 23.593 23.593 0 0 1-6.807 17.984z" class="cls-3" transform="translate(-2122 -56.5)"/>
            <g id="Group_95" transform="translate(-2122 -56.5)">
                <g id="Group_19">
                    <path id="Rectangle_23" d="M0 0H68.794V72.616H0z" class="cls-4" transform="translate(3353.034 685.476)"/>
                    <path id="Rectangle_24" d="M0 0H68.794V72.616H0z" class="cls-4" transform="translate(3353.034 781.023)"/>
                    <path id="Rectangle_25" d="M0 0H68.794V72.616H0z" class="cls-4" transform="translate(3649.229 697.897)"/>
                    <path id="Rectangle_26" d="M0 0H68.794V72.616H0z" class="cls-4" transform="translate(3649.229 793.444)"/>
                    <path id="Rectangle_27" d="M0 0H68.794V72.616H0z" class="cls-4" transform="translate(3512.597 685.476)"/>
                    <path id="Rectangle_28" d="M0 0H68.794V72.616H0z" class="cls-4" transform="translate(3512.597 781.023)"/>
                    <path id="Rectangle_29" d="M0 0H68.794V72.616H0z" class="cls-4" transform="translate(3353.034 871.792)"/>
                    <path id="Line_5" d="M0 0L0 307.661" class="cls-5" transform="translate(3465.78 663.5)"/>
                    <path id="Line_6" d="M0 0L0 307.661" class="cls-5" transform="translate(3624.865 663.5)"/>
                </g>
                <g id="Group_24">
                    <g id="Group_20">
                        <path id="Path_37" d="M3748.294 1254.307s-71.6-66.687-86.768-104.028-38.8-115.825-55.811-121.454-87.491-3.983-87.491-3.983" class="cls-6"/>
                        <path id="Path_38" d="M3491.741 1061.769s-7.113 66.433 2.3 74.864 18.67-7.583 22.971-16.169a28.9 28.9 0 0 0 2.536-17.129" class="cls-6"/>
                        <path id="Path_39" d="M3539.7 1140.777s-5.213 15.708-12.642 10.747-15.608-21.468-15.608-21.468" class="cls-6"/>
                        <path id="Path_40" d="M3558.413 1167.407s2.065 10.367-8.911 12.709c-4.118.879-14.686-29.431-14.686-29.431" class="cls-6"/>
                    </g>
                    <path id="Path_41" d="M3513.638 1129.829l-151.474-41.277 53.207-195.252 125.376 34.165 19.34 31.91z" class="cls-2"/>
                    <g id="Group_21">
                        <path id="Path_42" d="M3550 1074.818c-5.783 3.3-8.912-10.247-25.9-37.349s-33.786-39.019-48.824-30.441 6.471 39.453 11.09 47.55 19.962 20.269 47.829 75.98c29.936 59.846 64.768 66.317 64.768 66.317l48.493 99.611" class="cls-6"/>
                        <path id="Path_43" d="M3472.074 1026.167s11.181 17.353 14.361 16.18 19.7-13.805 18.324-16.225-10.657-18.323-14.176-20.72" class="cls-6"/>
                    </g>
                    <g id="Group_23">
                        <g id="Group_22">
                            <path id="Path_44" fill="#0c0e17" d="M3512.961 993.929l-16.757-1.264 18.021-15.493z"/>
                        </g>
                        <path id="Path_45" d="M3481.135 1063.385a53.635 53.635 0 1 1 26.474-74.62" class="cls-6"/>
                    </g>
                </g>
            </g>
        </g>
    </g>
</svg>
