<svg xmlns="http://www.w3.org/2000/svg" width="576.966" height="891.057" viewBox="0 0 576.966 891.057">
    <defs>
        <style>
            .cls-1{fill:#964bac}.cls-2{fill:#fff}.cls-5{fill:#0c0e17}
        </style>
    </defs>
    <g id="Group_90" transform="translate(-1115.888 -452.87)">
        <path id="Path_1" d="M3763.62 4403.761l.156 4.081 41.1-1.81-.551-15.18a2.706 2.706 0 0 1 3.808-1.57c2.678 1.4 5.3 2.623 8.172.9a7.554 7.554 0 0 0 2.447-10.323c-2.707-4.21-7.291-3.509-10.94-1.053a2.662 2.662 0 0 1-2.244.351 2.607 2.607 0 0 1-1.758-1.588l-.4-10.582-.2-5.06-41.1 2.29 1.507 39.539z" class="cls-1" transform="translate(-2127 -3431.5)"/>
        <rect id="Rectangle_7" width="472" height="775" class="cls-2" rx="30.903" transform="translate(1179 507.5)"/>
        <g id="Group_3" transform="translate(-2127 -3431.5)">
            <rect id="Rectangle_8" width="348.283" height="421.854" fill="#eef1ff" rx="9.436" transform="translate(3385.375 4114.476)"/>
            <path id="Rectangle_9" d="M0 0H84.952V110.619H0z" class="cls-2" transform="translate(3414.736 4231.658)"/>
            <path id="Rectangle_10" d="M0 0H84.952V110.619H0z" class="cls-2" transform="translate(3512.647 4231.658)"/>
            <path id="Rectangle_11" d="M0 0H84.952V110.619H0z" class="cls-2" transform="translate(3610.558 4231.658)"/>
            <path id="Rectangle_12" d="M0 0H84.952V110.619H0z" class="cls-2" transform="translate(3414.736 4371.338)"/>
            <path id="Rectangle_13" d="M0 0H84.952V110.619H0z" class="cls-2" transform="translate(3512.647 4371.338)"/>
            <path id="Rectangle_14" d="M0 0H84.952V110.619H0z" class="cls-2" transform="translate(3610.558 4371.338)"/>
            <circle id="Ellipse_1" cx="76.16" cy="76.16" r="76.16" fill="#e1e7ff" transform="translate(3545.277 4040.417)"/>
            <g id="Group_2">
                <g id="Group_1">
                    <path id="Path_2" d="M3620.233 4159.951h-27.025c-3.3 0-5.281-2.034-5.183-5.309a32.184 32.184 0 0 1 63.828-5.134 43.015 43.015 0 0 1 .544 5c.194 3.344-1.811 5.44-5.14 5.441q-13.512.006-27.024.002z" class="cls-5"/>
                    <path id="Path_3" d="M3620.213 4077.4a18.405 18.405 0 1 1-.152 36.81 18.405 18.405 0 0 1 .152-36.81z" class="cls-5"/>
                </g>
            </g>
        </g>
        <path id="Path_6" d="M3425 4434.233a16.175 16.175 0 0 1 7.822 1.763c3 1.494 5.946 3.079 8.825 4.778 3.344 1.973 7.023 2.675 10.771 3.21 3.143.449 6.31.691 9.432 1.329a14.14 14.14 0 0 1 9.595 6.939c2.639 4.344 4.634 9.011 6.9 13.542a6.048 6.048 0 0 0 1.126 1.613c3.366 3.38 6.9 6.589 10.127 10.112.648.708 1.279 1.433 1.913 2.155 2.624 2.986 3.153 6.544 2.77 10.331-.37 3.661-1.274 7.232-1.88 10.855a36.88 36.88 0 0 0 .7 13.7 58.537 58.537 0 0 1 1.227 8.242 14.3 14.3 0 0 1-3.74 10.675 50.313 50.313 0 0 1-5.468 5.345 35.81 35.81 0 0 0-10 13.784c-.772 1.831-1.709 3.585-2.6 5.362a15.422 15.422 0 0 1-12.706 8.837c-3.021.368-6.027.857-9.047 1.242-4.47.57-8.413 2.472-12.249 4.7a41.91 41.91 0 0 1-7.824 3.871 15.525 15.525 0 0 1-11.526-.467 69.365 69.365 0 0 1-7.389-3.874 35.031 35.031 0 0 0-14.422-4.705c-2.629-.282-5.237-.768-7.848-1.205-4.86-.812-8.14-3.776-10.505-7.9a119.962 119.962 0 0 1-5.351-10.765 18.315 18.315 0 0 0-4.389-5.8c-3.242-3.08-6.417-6.228-9.417-9.553s-3.449-7.254-3.059-11.428c.3-3.235 1.147-6.381 1.726-9.571a35.827 35.827 0 0 0-.331-13.119 64.244 64.244 0 0 1-1.521-9.7 13.4 13.4 0 0 1 4.131-10.378c2.537-2.523 4.934-5.19 7.526-7.653a32.012 32.012 0 0 0 7.246-10.814 64.7 64.7 0 0 1 3.108-6.33 16.282 16.282 0 0 1 12.955-8.6c2.99-.348 5.971-.777 8.95-1.21a26.4 26.4 0 0 0 8.18-2.673c3.427-1.739 6.855-3.475 10.3-5.173a10.779 10.779 0 0 1 5.942-1.467z" transform="translate(-2127 -3431.5)"/>
        <path id="Path_7" fill="#4668d5" d="M3442.248 4541.79l-18.006-12.553a.816.816 0 0 0-.755-.095l-20.55 7.716a.817.817 0 0 1-1.069-1l6.375-21a.817.817 0 0 0-.143-.747l-13.689-17.159a.818.818 0 0 1 .623-1.327l21.946-.427a.823.823 0 0 0 .667-.367l12.089-18.322a.817.817 0 0 1 1.454.183l7.189 20.74a.814.814 0 0 0 .555.52l21.16 5.836a.818.818 0 0 1 .276 1.44l-17.5 13.245a.819.819 0 0 0-.324.689l.989 21.928a.817.817 0 0 1-1.287.7z" transform="translate(-2127 -3431.5)"/>
        <path id="Path_11" d="M3259.663 3990.824q15.793 8.991 31.856 8.77a55.041 55.041 0 0 0 29.411-8.755 66.31 66.31 0 0 0 21.961-23.565 64.891 64.891 0 0 0 9-30.74 54.062 54.062 0 0 0-7.578-29.382q-7.974-13.665-23.953-22.782l-18.213 31.936q12.285 7 15.522 16.729a22.368 22.368 0 0 1-1.943 18.751 23.535 23.535 0 0 1-15.325 11.531q-10.24 2.57-22.525-4.444l-18.213 31.951z" class="cls-1" transform="translate(-2127 -3431.5)"/>
        <path id="Path_12" fill="none" stroke="#964bac" stroke-miterlimit="10" stroke-width="1.5px" d="M3364.845 4710.285a65.221 65.221 0 0 0-8.757-30.8 54.285 54.285 0 0 0-22.063-20.8q-14.07-7.31-32.44-6.482-18.132.8-31.623 9.42a54.392 54.392 0 0 0-20.226 22.9 69.688 69.688 0 0 0 2.759 62.47 54.512 54.512 0 0 0 22.168 21.01q14.187 7.4 32.329 6.6 18.164-.8 31.638-9.538a55.112 55.112 0 0 0 20.219-23.077 66.606 66.606 0 0 0 5.996-31.703zm-38.048 19.372q-7.28 7.6-21.426 8.224-14.12.621-22.041-6.113a23.984 23.984 0 0 1-1.657-34.918q7.179-7.31 21.535-7.929 14.148-.62 22.051 5.891a22.228 22.228 0 0 1 8.349 16.862 23.593 23.593 0 0 1-6.808 17.983z" transform="translate(-2127 -3431.5)"/>
    </g>
</svg>
