<svg xmlns="http://www.w3.org/2000/svg" width="827.324" height="755.351" viewBox="0 0 827.324 755.351">
    <defs>
        <style>
            .cls-2,.cls-3{fill:none;stroke:#0c0e17}.cls-2{stroke-miterlimit:10}.cls-3{stroke-linecap:round;stroke-linejoin:round;stroke-width:1.5px}.cls-4{fill:#ebedff}.cls-5{fill:#4668d5}
        </style>
    </defs>
    <g id="Group_44" transform="translate(-931.307 -1215.46)">
        <g id="Group_11" opacity="0.15">
            <path id="Path_4" d="M931.989 1597.928q56.64 32.327 114.248 31.506c38.3-.583 73.421-10.961 105.484-31.453 31.994-20.334 58.289-48.611 78.755-84.513q30.8-54.009 32.28-110.245a193.608 193.608 0 0 0-27.175-105.323q-28.6-49.007-85.909-81.758l-65.319 114.589q44.054 25.1 55.671 59.994c7.561 23.3 5.316 45.646-6.974 67.2q-18.341 32.169-54.956 41.409-36.735 9.216-80.786-15.938l-65.319 114.536z" class="cls-2"/>
            <path id="Path_5" d="M1660.327 1970.181l38.962-120.36-533.456-172.729-38.962 120.36 533.456 172.729z" class="cls-2"/>
            <path id="Path_6" d="M1621.4 1549.9q26.093-27.4 24.421-64.494c-1.085-24.624-11.046-44.851-29.944-60.473q-28.349-23.351-79.085-21.128-51.445 2.3-77.23 28.436-25.752 26.133-24.109 64.019 1.635 37.094 30.05 61.211 28.38 24.228 79.047 21.925 50.747-2.225 76.85-29.5z" class="cls-2"/>
            <path id="Path_7" d="M1550.371 1711.139q65.132-2.937 113.461-34.207 48.229-31.374 72.518-82.816 24.21-51.549 21.5-113.637c-1.827-41.355-12.322-78.262-31.406-110.458q-28.626-48.372-79.132-74.664-50.46-26.21-116.341-23.244c-43.352 1.958-81.181 13.132-113.408 33.783q-48.237 30.978-72.544 82.129-24.337 51.073-21.594 113.212 2.741 62.032 31.491 110.829 28.648 48.768 79.5 75.4 50.882 26.45 115.949 23.669z" class="cls-2"/>
        </g>
        <g id="Group_17">
            <g id="Group_16">
                <path id="Path_30" d="M1528.728 1700.611a40.278 40.278 0 0 1-7.611 2.571c-6.267 1.316-21.374-.792-38.753-3.622a189.3 189.3 0 0 1 .673-27.562c.852-10.315 2.649-27.5 3.909-32.052 3.6-12.972 1.779-17.059 18.336-16.636 12.75.323 48.674 2.986 64.51 4.195.735 1.1 1.143 1.72 1.143 1.72s-4.248 32.329-6.421 41.745c-.753 3.261-4.439 7.756-9.548 12.366" class="cls-3"/>
                <path id="Path_31" d="M1554.966 1683.336l-2.949-19.552s-21.111 1.678-31.071-4.528c1.212 13.6-.1 27.737-6.919 33.594a99.238 99.238 0 0 1 14.7 7.761" class="cls-3"/>
                <path id="Path_32" d="M1529.826 1699.982a106.822 106.822 0 0 0 25.608-18.2" class="cls-3"/>
                <path id="Path_33" d="M1482.364 1699.56c-22.936-3.735-49.827-8.742-65.606-8.823-20.405-.107-31.146 2.808-41.471 15.635-6.67 8.284-3.361 26.588-3.361 26.588s1.288-.05 3.566-.106h.006c6.146-.146 19.467-.32 33.889.443v-.005a245.917 245.917 0 0 1 25.358 2.507c26.675 4.281 51.719 9.4 63.411 22.2 17.187 18.829 40.076 38.841 65.768 47.383s143.592 85.065 143.592 85.065" class="cls-3"/>
                <path id="Path_34" d="M1375.506 1732.879c-2.994-9.245 4.615-20.634 16.645-23.188s20.575 2.226 20.575 2.226-1.267 18.288-3.505 21.655c-13.384-.451-28.354-.385-33.715-.693z" class="cls-3"/>
            </g>
            <circle id="Ellipse_2" cx="114.572" cy="114.572" r="114.572" class="cls-4" transform="translate(1079 1467)"/>
            <circle id="Ellipse_3" cx="114.572" cy="114.572" r="114.572" class="cls-4" transform="translate(1317.655 1467)"/>
            <circle id="Ellipse_4" cx="97.596" cy="97.596" r="97.596" class="cls-5" transform="translate(1101.482 1505.275)"/>
            <circle id="Ellipse_5" cx="97.596" cy="97.596" r="97.596" class="cls-5" transform="translate(1330.303 1506.139)"/>
            <path id="Path_35" d="M1278.858 1571.388s32.092 36.688 67.992 3.783c0 0-12.11 53.673 7.566 85.943 4.672 7.662-44.786-22.495-79.493 3.148 10.086-39.002 16.343-74.494 3.935-92.874z" class="cls-5"/>
            <circle id="Ellipse_6" cx="80.782" cy="80.782" r="80.782" class="cls-4" transform="translate(1118.296 1522.089)"/>
            <path id="Path_36" d="M1179 1661.941a62.4 62.4 0 0 1-30.843-95.1" class="cls-3"/>
            <circle id="Ellipse_7" cx="80.782" cy="80.782" r="80.782" class="cls-4" transform="translate(1347.118 1522.954)"/>
            <path id="Path_37" d="M1752.355 1773.366s-60.406-19.255-71.06-27.023-27.307-78.984-32.2-101.716c-2.534-11.822-9.514-35.019-26.39-49.353-20.089-17.059-34.98-43.005-48.818-55.7-19.842-18.207-47.992-40.77-67.827-45.239-11.861-2.672-25.333-5.763-37.5-8.577l-.262-.06c-19.918-4.609-36.29-8.453-36.29-8.453s-.006.053-.022.145v.006c-.282 2.026-3 23.847 10.361 32.151 8.109 5.036 21.249 13.306 41.239 14.8 17.056 20.1 53.455 41.659 53.455 41.659s5.78 26.06 15.476 37.983c7.607 9.342 14.606 19.551 17.273 23.522" class="cls-3"/>
            <path id="Path_38" d="M1403.821 1661.941a62.4 62.4 0 0 1-30.844-95.1" class="cls-3"/>
        </g>
    </g>
</svg>
