<svg xmlns="http://www.w3.org/2000/svg" width="1681.52" height="1466.486" viewBox="0 0 1681.52 1466.486">
    <defs>
        <style>
            .cls-1{opacity:.15}.cls-2{fill:none;stroke:#0c0e17;stroke-miterlimit:10}.cls-4{fill:#b5b5b5}.cls-5{fill:gray}
        </style>
    </defs>
    <g id="Group_96" transform="translate(-139.803 -226.46)">
        <g id="Group_1" class="cls-1">
            <path id="Path_1" d="M1226.341 1486.948q33.845-38.479 71.961-41.814 37.987-3.153 66.154 21.531c18.832 16.532 28.328 37.155 28.765 61.9q.39 37.2-33.454 75.674l100.121 88.006q44.031-50.142 55.215-106.35c7.555-37.617 4.639-74.092-8.707-109.668q-19.848-53.16-67.118-94.737-47.041-41.314-103.065-54.833-56.062-13.508-111.162 4.634-55.314 18.267-98.813 67.706l100.1 87.956z" class="cls-2"/>
            <path id="Path_2" d="M1651.392 1506.807l137.888-39-5.072-16.871-10.7-35.32a8.974 8.974 0 0 1 3.993-7.207 9.282 9.282 0 0 1 7.781-1.394c14.792 3.929 30.668 1.039 34.816-15.864 3.29-13.661-5.962-28.326-19.737-31.162-11.416-2.442-18.653 4.582-25.887 12.212a9.5 9.5 0 0 1-14.308-.847l-15.376-50.554-137.34 40.577 4.108 13.6 39.834 131.835z" class="cls-2"/>
        </g>
        <g id="Group_2" class="cls-1">
            <path id="Path_3" d="M946.364 608.928q56.64 32.327 114.248 31.506c38.3-.583 73.421-10.961 105.484-31.453 31.994-20.334 58.289-48.611 78.755-84.513q30.8-54.009 32.28-110.245a193.609 193.609 0 0 0-27.175-105.323q-28.6-49.006-85.909-81.758l-65.319 114.589q44.054 25.1 55.671 59.994c7.561 23.3 5.316 45.646-6.974 67.2q-18.341 32.169-54.956 41.409-36.735 9.216-80.786-15.938l-65.319 114.532z" class="cls-2"/>
            <path id="Path_4" d="M1674.7 981.181l38.962-120.36-533.454-172.73-38.962 120.36 533.454 172.73z" class="cls-2"/>
            <path id="Path_5" d="M1635.777 560.9q26.093-27.4 24.421-64.494c-1.085-24.624-11.046-44.851-29.944-60.473q-28.349-23.351-79.085-21.128-51.445 2.3-77.23 28.436-25.752 26.133-24.109 64.019 1.635 37.093 30.05 61.211 28.38 24.228 79.047 21.925 50.747-2.225 76.85-29.5z" class="cls-2"/>
            <path id="Path_6" d="M1564.746 722.139q65.132-2.937 113.461-34.207 48.229-31.374 72.518-82.816 24.21-51.549 21.5-113.637c-1.827-41.355-12.322-78.262-31.406-110.458q-28.626-48.372-79.132-74.664-50.46-26.209-116.341-23.244c-43.352 1.958-81.181 13.132-113.408 33.783q-48.237 30.978-72.544 82.129-24.334 51.075-21.594 113.212 2.741 62.032 31.491 110.829 28.648 48.768 79.5 75.4 50.882 26.45 115.949 23.669z" class="cls-2"/>
        </g>
        <g id="Group_3" class="cls-1">
            <path id="Path_7" d="M623.673 1604.036l271.644-69.58-31.379-122.531-271.645 69.526 11.019 43.051a7.857 7.857 0 0 0 12.169 1.112c8.816-9.214 21.43-14.085 31.67-3.761 8.255 8.368 8.012 22.771-.619 30.82-7.1 6.619-15.3 4.765-23.781 2.435a7.835 7.835 0 0 0-9.854 6.831l10.776 42.1z" class="cls-2"/>
            <path id="Path_8" d="M284.338 897.223l117.969 3.813.23-14.509.419-30.395a7.387 7.387 0 0 1 4.933-4.66 7.646 7.646 0 0 1 6.456.848c10.629 6.777 23.813 8.472 31.288-3.761 5.993-9.9 2.391-23.722-7.713-29.387-8.351-4.767-15.785-1.06-23.368 3.123a7.483 7.483 0 0 1-6.076.53 7.565 7.565 0 0 1-4.944-4.766l.553-43.527-117.932-2.432-.171 11.7-1.644 113.425z" class="cls-2"/>
            <path id="Path_9" d="M656.443 973.315q50.7 1.034 77.526 27.747 26.625 26.688 25.931 63.755c-.507 24.78-10.051 45.115-28.5 61.266q-27.865 23.986-78.565 22.927l-2.7 131.852q65.989 1.35 115.665-26.105a193.841 193.841 0 0 0 77.383-76.464q27.572-49.007 28.847-111.2c.848-41.3-7.234-79.057-24.25-112.946q-25.524-51.073-74.42-81.07-49.1-30.263-114.214-31.612l-2.7 131.85z" class="cls-2"/>
            <path id="Path_10" d="M359.578 1098.7q-50.674-1.031-78.508 23.776c-18.533 16.522-28.087 37.226-28.6 61.9q-.777 37.966 25.617 63.437 26.358 25.574 77.882 26.582 50.779 1.111 78.563-22.982c18.52-16.045 28-36.483 28.508-61.108.509-24.833-8.119-46.067-25.944-63.913q-26.748-26.607-77.522-27.694z" class="cls-2"/>
            <path id="Path_11" d="M246.922 993.278q-50.139 27.8-77.7 77.258-27.59 49.484-28.862 111.569-1.276 62.193 24.265 112.63 25.434 50.676 74.464 80.382 49.065 29.864 114.179 31.082 66 1.35 115.758-25.946 49.828-27.482 77.341-76.515 27.474-49.01 28.785-111.148 1.277-62.112-24.185-113.159-25.431-50.753-74.451-81.017-49.158-30.1-114.24-31.506-65.079-1.35-115.358 26.37z" class="cls-2"/>
        </g>
        <g id="Group_22">
            <g id="Group_21">
                <g id="Group_20" style="isolation:isolate">
                    <g id="Group_4">
                        <path id="Path_15" d="M419.717 987.261l-22.793-12.4.569-.184 22.793 12.4z" class="cls-4"/>
                    </g>
                    <g id="Group_5">
                        <path id="Path_16" d="M420.286 987.077l-22.793-12.4-.625-4.208 22.793 12.4z" class="cls-5"/>
                    </g>
                    <g id="Group_6">
                        <path id="Path_17" d="M415.131 955.345l-22.793-12.4.569-.184 22.793 12.4z" class="cls-4"/>
                    </g>
                    <g id="Group_7">
                        <path id="Path_18" d="M415.7 955.161l-22.793-12.4-.625-4.208 22.793 12.4z" class="cls-5"/>
                    </g>
                    <g id="Group_8">
                        <path id="Path_19" d="M410.807 925.233l-22.793-12.4.569-.175 22.793 12.4z" class="cls-4"/>
                    </g>
                    <g id="Group_9">
                        <path id="Path_20" d="M411.376 925.058l-22.793-12.4-.625-4.208 22.793 12.4z" class="cls-5"/>
                    </g>
                    <g id="Group_10">
                        <path id="Path_21" d="M405.921 891.215l-22.793-12.4.569-.183 22.793 12.4z" class="cls-4"/>
                    </g>
                    <g id="Group_11">
                        <path id="Path_22" d="M406.49 891.032l-22.793-12.4-.633-4.207 22.793 12.4z" class="cls-5"/>
                    </g>
                    <g id="Group_12">
                        <path id="Path_23" d="M315.588 1019.822l-22.793-12.4 104.129-32.561 22.793 12.4z" class="cls-4"/>
                    </g>
                    <g id="Group_13">
                        <path id="Path_24" d="M311 987.906l-22.793-12.4 104.129-32.561 22.793 12.4z" class="cls-4"/>
                    </g>
                    <g id="Group_14">
                        <path id="Path_25" fill="#a0a0a0" d="M387.113 833.172l-22.793-12.4 37.39 17.815 22.793 12.4z"/>
                    </g>
                    <g id="Group_15">
                        <path id="Path_26" d="M306.678 957.8l-22.793-12.4 104.129-32.57 22.793 12.4z" class="cls-4"/>
                    </g>
                    <g id="Group_16">
                        <path id="Path_27" d="M301.792 923.777L279 911.377l104.129-32.561 22.793 12.4z" class="cls-4"/>
                    </g>
                    <g id="Group_17">
                        <path id="Path_28" d="M299.077 1066.372l-22.793-12.4L247.9 856.47l22.793 12.4z" class="cls-5"/>
                    </g>
                    <g id="Group_18">
                        <path id="Path_29" fill="#dfdfdf" d="M424.5 850.987l24.351 169.459-149.777 45.926-28.383-197.5 116.419-35.7zM301.159 919.57l.633 4.207 104.129-32.562.569-.183-.633-4.207L301.728 919.4l-.569.175m118.558 67.691l.569-.184-.625-4.208-104.129 32.57-.569.175.625 4.208 104.129-32.561m-113.664-33.671l.625 4.208 104.129-32.57.569-.175-.625-4.208-104.129 32.561-.569.184m4.325 30.1l.625 4.208 104.128-32.561.569-.184-.625-4.208-104.128 32.57-.569.175"/>
                    </g>
                    <g id="Group_19">
                        <path id="Path_30" d="M270.694 868.869L247.9 856.47l116.419-35.7 22.793 12.4z" class="cls-4"/>
                    </g>
                </g>
            </g>
        </g>
    </g>
</svg>
